<svg width="20" height="24" viewBox="0 0 20 24" fill="none" xmlns="http://www.w3.org/2000/svg">
<path d="M19.3334 0.333496H0.666748V2.66683L7.44508 7.7535C5.38794 8.43183 3.68431 9.8992 2.70861 11.8331C1.73291 13.767 1.56498 16.0092 2.24175 18.0668C2.57657 19.0861 3.10907 20.0294 3.80879 20.8428C4.50851 21.6561 5.36172 22.3235 6.31961 22.8068C7.27749 23.29 8.32126 23.5797 9.39121 23.6592C10.4612 23.7387 11.5363 23.6065 12.5551 23.2702C14.189 22.7331 15.6116 21.694 16.6202 20.3008C17.6287 18.9077 18.1717 17.2317 18.1717 15.5118C18.1717 13.7919 17.6287 12.116 16.6202 10.7228C15.6116 9.32969 14.189 8.29053 12.5551 7.7535L19.3334 2.66683V0.333496ZM13.4301 20.7502L10.0001 18.7435L6.57008 20.7502L7.48008 16.8652L4.45841 14.2518L8.43675 13.9135L10.0001 10.2502L11.5634 13.9135L15.5417 14.2518L12.5201 16.8652L13.4301 20.7502Z" fill="#6B5BBE"/>
</svg>
