<svg width="39" height="39" viewBox="0 0 39 39" fill="none" xmlns="http://www.w3.org/2000/svg">
<path d="M19.5 38C29.7173 38 38 29.7173 38 19.5C38 9.28273 29.7173 1 19.5 1C9.28273 1 1 9.28273 1 19.5C1 29.7173 9.28273 38 19.5 38Z" fill="#FFCCED" stroke="#1E00FC" stroke-width="2" stroke-linecap="round" stroke-linejoin="round"/>
<path d="M14.361 25.6667C15.0309 26.3504 15.8304 26.8935 16.7128 27.2643C17.5953 27.6351 18.5428 27.8261 19.4999 27.8261C20.4571 27.8261 21.4046 27.6351 22.287 27.2643C23.1694 26.8935 23.9689 26.3504 24.6388 25.6667" fill="#FFCCED"/>
<path d="M13.3333 15.3889H13.3538M25.6666 15.3889H25.6871M14.361 25.6667C15.0309 26.3504 15.8304 26.8935 16.7128 27.2643C17.5953 27.6351 18.5428 27.8261 19.4999 27.8261C20.4571 27.8261 21.4046 27.6351 22.287 27.2643C23.1694 26.8935 23.9689 26.3504 24.6388 25.6667" stroke="#1E00FC" stroke-width="2" stroke-linecap="round" stroke-linejoin="round"/>
</svg>
