<svg width="39" height="39" viewBox="0 0 39 39" fill="none" xmlns="http://www.w3.org/2000/svg">
<path d="M19.5 38C29.7173 38 38 29.7173 38 19.5C38 9.28273 29.7173 1 19.5 1C9.28273 1 1 9.28273 1 19.5C1 29.7173 9.28273 38 19.5 38Z" fill="#FC00A4" stroke="#1E00FC" stroke-width="2" stroke-linecap="round" stroke-linejoin="round"/>
<path d="M14.3611 25.6666C15.031 26.3503 15.8305 26.8934 16.7129 27.2642C17.5953 27.635 18.5428 27.826 19.5 27.826C20.4571 27.826 21.4046 27.635 22.2871 27.2642C23.1695 26.8934 23.969 26.3503 24.6389 25.6666" fill="#FC00A4"/>
<path d="M13.3333 15.3888H13.3539M25.6666 15.3888H25.6872M14.3611 25.6666C15.031 26.3503 15.8305 26.8934 16.7129 27.2642C17.5953 27.635 18.5428 27.826 19.5 27.826C20.4571 27.826 21.4046 27.635 22.2871 27.2642C23.1695 26.8934 23.969 26.3503 24.6389 25.6666" stroke="#1E00FC" stroke-width="2" stroke-linecap="round" stroke-linejoin="round"/>
</svg>
