<svg enable-background="new 0 0 2000 2000" viewBox="0 0 2000 2000" xmlns="http://www.w3.org/2000/svg"><circle cx="1012" cy="1000" fill="#c7e1f9" r="704"/><path d="m986.31 1178.55v6.96l-12.53 26.45-9.75 22.28-4.18 18.1v15.31l5.57 15.31 11.14 15.31 12.53 9.75 18.1 11.14 22.28 4.18 34.8 6.96 33.41 4.18 9.75 4.18 6.96 6.96 16.71 18.1 18.1 13.92s37.59 23.67 38.98 20.88c1.39-2.78 30.63 8.35 30.63 8.35l41.77 2.78 33.41 1.39 26.45-5.57 2.78-9.75 6.96-19.49v-5.57l-8.35-4.18-59.86-19.49-71-26.45-23.67-13.92-20.88-20.88-9.75-20.88-4.18-8.35-12.53-1.39-43.16-11.14-40.37-19.49-29.24-20.88-18.1-25.06z" fill="#005cff"/><path d="m961.25 1274.61-5.57 11.14 1.4 15.32 6.96 11.13 13.92 13.93 25.06 19.49 26.45 15.31 37.59 18.1 43.16 18.1 20.88 12.53 13.92 12.53 19.49 18.1 26.45 23.66 25.06 13.92 38.98 6.97h30.63l38.98 6.96-6.96-11.14-2.78-19.49 2.78-37.59 1.89-17.91-17.2 5.38h-27.84l-38.99-2.79-45.46-10.01-28.32-12.26-30.63-22.28-25.06-26.45-19.49-4.17-40.37-5.57-45.95-12.53-15.31-9.75-15.31-15.31z" fill="#4c0bd9"/><circle cx="1280.06" cy="1466.74" fill="#a1ccff" r="9.75"/><circle cx="1250.83" cy="1461.17" fill="#a1ccff" r="9.75"/><circle cx="1222.98" cy="1456.99" fill="#a1ccff" r="9.75"/><circle cx="1195.14" cy="1444.46" fill="#a1ccff" r="9.75"/><circle cx="1157.55" cy="1409.66" fill="#a1ccff" r="9.75"/><path d="m1053.14 1108.94 107.2 68.22 164.27 109.98 66.83 43.16 51.51 34.81 34.81 22.27 19.49 15.32 8.35 11.13 11.14 13.93 2.78 16.7-2.78 16.71-9.75 11.14-13.92 9.74-44.55 12.53-51.51 4.18h-43.16l-22.27-5.57-8.99-4.64-6.33-17.64-1.39-25.06 4.18-26.45 3.53-21.41 9-23.14-5.22-6.19-40.03-13.72-91.19-34.38-30.63-16.71-16.7-16.71-13.87-28.91-36.25-7.28-41.37-16.85-33.39-19.25-23.24-21.63-11.99-24.41v-23.67l9.75-16.71 15.31-12.53 19.49-9.74z" fill="#a1ccff"/><path d="m957.08 1248.16-34.81 27.85-5.57 9.74-1.39 8.36 2.78 5.56 8.36 1.4 9.74-1.4 15.32-12.53 5.57-5.56 5.07-7.64-2.29-28.56z" fill="#005cff"/><path d="m1026.69 1159.06 32.02 22.28 37.58 29.23 11.14 6.96 2.79-6.96-5.57-26.45-11.14-18.1-16.71-12.53-18.09-5.56-18.1 1.39-9.75 6.96z" fill="#d4eaff"/><path d="m1117.78 1401.66 3.57 17.74 6.97 25.06 11.13 23.67 8.36 8.35 18.09 12.53 29.24 1.39 32.02-5.56 9.75-2.79-19.1-3.86-25.81-13.44-24.01-21.36-29.61-27.18z" fill="#d4eaff"/><circle cx="1156.16" cy="1455.6" fill="#a1ccff" r="9.75"/><path d="m1134 1255.17c-4.62-2.65-10.84-2.34-15.98-3.15-5.77-.9-11.5-2.07-17.16-3.49-11.11-2.79-21.99-6.54-32.49-11.11-10.57-4.6-20.78-10-30.62-16.01-8.89-5.43-17.69-11.21-25.54-18.07-7.47-6.53-14.05-14.15-18.27-23.19-5-10.7-7.4-24.23-3.64-35.64 3.46-10.5 11.87-18.47 20.6-24.81 9.07-6.58 19.89-11.97 31.37-11.35 11.82.64 22.56 8.39 32.36 14.35 10.74 6.53 21.15 13.59 31.6 20.57 21.74 14.51 43.34 29.24 65.06 43.79 43.54 29.16 87.28 58.01 130.93 87 43.26 28.73 86.23 57.99 130 85.95 20.26 12.94 41.25 25.33 59.56 41.01 15.23 13.05 31.2 33.55 24.12 54.83-3.62 10.88-12.72 17.96-22.54 23.11-9.94 5.23-20.8 8.5-31.76 10.81-10.87 2.29-21.92 3.61-32.96 4.76-12.81 1.34-25.64 2.17-38.52 2.3-12.75.12-25.5-.37-38.2-1.42-10.48-.87-22.22-1.74-28.72-11.22-4.76-6.94-5.8-15.82-5.91-24.03-.11-8.15.82-16.25 1.63-24.35 1.21-12.09 2.57-24.22 5.6-36.01 1.49-5.8 3.37-11.52 5.83-16.98 1.98-4.4 4.95-8.94 1.23-13.32-3.29-3.88-9.13-5.63-13.7-7.47-5.49-2.2-11.11-4.08-16.77-5.82-11.54-3.54-23.24-6.56-34.72-10.32-24.59-8.05-48.68-17.38-72.44-27.61-10-4.3-19.2-9.55-27.64-16.48-8.19-6.72-15.2-14.79-20.56-23.93-2.4-4.08-4.1-8.09-5.5-12.59-1.21-3.94-2.77-7.68-6.25-10.11-2.21-1.54-4.3 2.08-2.11 3.61 3.81 2.65 4.35 8.22 5.82 12.27 1.74 4.8 4.53 9.34 7.37 13.56 5.91 8.78 13.27 16.43 21.7 22.81 4.37 3.31 9.01 6.66 13.83 9.27 5.03 2.72 10.4 4.83 15.64 7.09 12.03 5.18 24.17 10.08 36.43 14.68 12.35 4.63 24.8 9.02 37.38 12.99 11.91 3.76 24.06 6.75 35.92 10.68 5.88 1.95 11.71 4.11 17.31 6.75 2 .94 5.08 2.19 5.86 4.49.89 2.63-2.31 7.1-3.35 9.53-4.78 11.26-7.35 23.25-9.03 35.32-1.38 9.93-2.43 19.94-3.21 29.94-.67 8.68-.88 17.59 1.06 26.13 1.88 8.28 6.27 16 13.87 20.21 4.71 2.61 10.03 3.72 15.33 4.32 6.45.73 12.94 1.18 19.42 1.54 25.82 1.45 51.56.19 77.21-3 21.93-2.72 45.51-7 63.83-20.2 8.8-6.34 15.3-15.08 17.01-25.97 1.64-10.43-1.38-20.81-6.59-29.82-11.48-19.85-31.82-33.35-50.48-45.76-21.35-14.2-43.13-27.77-64.53-41.91-22.48-14.85-44.93-29.75-67.38-44.65-45.02-29.88-90.01-59.79-135.02-89.68-22.5-14.94-44.88-30.04-67.27-45.13-21.55-14.53-42.94-29.6-65.6-42.38-10.16-5.73-20.6-9.27-32.31-6.83-11 2.29-20.84 8.63-29.32 15.77-8.29 6.97-15.38 15.78-17.59 26.63-2.31 11.31.11 23.69 4.79 34.11 8.53 18.99 26.56 31.63 43.68 42.28 20.06 12.48 41.82 22.48 64.73 28.41 5.5 1.42 11.07 2.61 16.67 3.54 2.62.43 5.25.81 7.89 1.14 2.98.37 6.25.35 8.92 1.88 2.34 1.33 4.45-2.28 2.12-3.62z" fill="#3314a6"/><path d="m985.21 1165.11c2.27 14.36-3.3 28.3-9.4 41-6.37 13.23-13.99 26.27-17.18 40.75-3.3 14.97-.42 30 8.1 42.75 8.99 13.46 22.35 23.12 37.17 29.28 17.04 7.09 35.46 9.79 53.63 12.23 9.95 1.34 19.9 2.65 29.84 3.98 4.77.63 9.73 1.02 14.27 2.68 4.03 1.47 7.17 4.3 9.96 7.47 2.85 3.23 5.42 6.69 8.28 9.91 2.7 3.05 5.54 5.97 8.5 8.76 6.05 5.71 12.61 10.89 19.5 15.54 13.95 9.41 29.37 16.62 45.37 21.8 18.61 6.03 38.03 9.34 57.51 10.86 9.76.76 19.55 1.07 29.34 1.03 9.27-.04 18.68-.13 27.8-1.98 4.36-.88 8.56-2.24 12.6-4.11 2.44-1.13.32-4.73-2.11-3.61-8.44 3.91-17.82 4.96-27.01 5.31-9.44.36-18.91.29-28.35-.1-19.33-.79-38.64-3.19-57.37-8.12-32.29-8.5-63.17-24.99-84.92-50.76-5.43-6.44-10.22-13.45-18.59-16.23-4.31-1.43-8.9-1.84-13.38-2.44-4.91-.65-9.82-1.31-14.73-1.96-18.46-2.46-37.21-4.35-55.17-9.48-16.02-4.57-31.19-12.1-42.54-24.54-10.2-11.18-16.27-25.6-14.72-40.87 2.92-28.66 26.74-50.83 28.23-79.89.18-3.47-.06-6.93-.6-10.36-.42-2.66-4.45-1.54-4.03 1.1z" fill="#3314a6"/><path d="m959.43 1274.58c-9.96 10.4-7.01 26.57.85 37.22 4.47 6.07 10.16 11.01 16 15.72 6.36 5.13 12.89 10.05 19.59 14.72 13.28 9.28 27.22 17.64 41.66 24.98s29.45 13.34 44.41 19.5c14.62 6.03 29.21 12.42 42.51 21.07 12.23 7.96 22.73 18.06 33.02 28.33 10.01 10 19.94 20.17 31.33 28.65 11.59 8.63 24.56 14.58 38.67 17.7 29.86 6.61 60.95 2.65 90.78 9.32 3.56.8 7.07 1.76 10.53 2.89 2.56.84 3.66-3.19 1.11-4.03-28.57-9.34-59.18-6.18-88.61-10-14.26-1.85-28.21-5.62-40.65-12.98-11.93-7.06-22.14-16.56-31.95-26.25-9.87-9.75-19.44-19.86-30.25-28.59-11.93-9.63-25.35-16.98-39.29-23.26-14.28-6.43-28.98-11.87-43.28-18.23-14.6-6.5-28.75-14-42.31-22.44-13.38-8.32-26.38-17.49-38.39-27.71-10.21-8.69-20.88-20.96-17.22-35.45.78-3.1 2.26-5.9 4.47-8.21 1.83-1.94-1.12-4.9-2.98-2.95z" fill="#3314a6"/><path d="m960.66 1241.39c-7.95 7.52-16.97 13.74-25.59 20.45-8 6.23-16.4 13.02-20.26 22.71-1.47 3.69-2.21 8.16-.63 11.94 1.21 2.9 3.71 4.8 6.66 5.73 3.03.95 6.32.88 9.43.46 2.88-.39 6.02-1.04 8.56-2.51 3.49-2.03 6.29-5.26 9.16-8.05 1.51-1.47 3.04-2.96 4.74-4.22 1.15-.85 2.55-1.85 4.02-1.91 2.68-.13 2.69-4.3 0-4.18-3.16.15-5.81 2.1-8.15 4.07-2.78 2.33-5.24 5.01-7.89 7.48-2.08 1.94-4.04 3.47-6.78 4.28-2.76.81-5.64 1.26-8.52 1.13-2.28-.1-4.92-.63-6.5-2.44-2.21-2.53-1.51-6.5-.55-9.39 3-9.05 11.24-15.52 18.44-21.2 8.98-7.09 18.48-13.53 26.81-21.41 1.96-1.83-1-4.78-2.95-2.94z" fill="#3314a6"/><path d="m1287.02 1464.89c.62 3.06-.75 6.33-3.45 7.99-2.76 1.7-6.34 1.51-8.79-.46-2.62-2.09-3.53-5.53-2.49-8.6.98-2.91 3.9-5.03 7.03-5.1 3.7-.06 6.85 2.48 7.7 6.17.6 2.62 4.63 1.51 4.03-1.11-1.09-4.74-5.07-8.43-9.89-9.09-4.88-.67-9.89 1.81-12.14 6.24-2.26 4.46-1.53 9.91 1.89 13.58 3.36 3.6 8.76 4.65 13.25 2.75 5.28-2.24 8.01-7.94 6.89-13.48-.22-1.11-1.54-1.74-2.57-1.46-1.15.32-1.68 1.46-1.46 2.57z" fill="#3314a6"/><path d="m1258.82 1459.58c.62 3.06-.75 6.33-3.45 7.99-2.76 1.7-6.34 1.51-8.79-.46-2.62-2.09-3.53-5.53-2.49-8.6.98-2.91 3.9-5.03 7.03-5.1 3.7-.06 6.85 2.48 7.7 6.17.6 2.62 4.63 1.51 4.03-1.11-1.09-4.74-5.07-8.43-9.89-9.09-4.88-.67-9.89 1.81-12.14 6.24-2.26 4.46-1.53 9.91 1.89 13.58 3.36 3.6 8.76 4.65 13.25 2.75 5.28-2.24 8.01-7.94 6.89-13.48-.22-1.11-1.54-1.74-2.57-1.46-1.16.32-1.69 1.46-1.46 2.57z" fill="#3314a6"/><path d="m1230.9 1455.63c.62 3.06-.75 6.33-3.45 7.99-2.76 1.7-6.34 1.51-8.79-.46-2.62-2.09-3.53-5.53-2.49-8.6.98-2.91 3.9-5.03 7.03-5.1 3.71-.06 6.86 2.48 7.7 6.17.6 2.62 4.63 1.51 4.03-1.11-1.09-4.74-5.07-8.43-9.89-9.09-4.88-.67-9.89 1.81-12.14 6.24-2.26 4.46-1.53 9.91 1.89 13.58 3.36 3.6 8.76 4.65 13.25 2.75 5.28-2.24 8.01-7.94 6.89-13.48-.22-1.11-1.54-1.74-2.57-1.46-1.15.32-1.68 1.46-1.46 2.57z" fill="#3314a6"/><path d="m1202.59 1443.22c.62 3.06-.75 6.33-3.45 7.99-2.76 1.7-6.34 1.51-8.79-.46-2.62-2.09-3.53-5.53-2.49-8.6.98-2.91 3.9-5.03 7.03-5.1 3.71-.06 6.85 2.48 7.7 6.17.6 2.62 4.63 1.51 4.03-1.11-1.09-4.74-5.07-8.43-9.89-9.09-4.88-.67-9.89 1.81-12.14 6.24-2.26 4.46-1.53 9.91 1.89 13.58 3.36 3.6 8.76 4.65 13.25 2.75 5.28-2.24 8.01-7.94 6.89-13.48-.22-1.11-1.54-1.74-2.57-1.46-1.15.32-1.68 1.46-1.46 2.57z" fill="#3314a6"/><path d="m1165.21 1408.56c.62 3.06-.75 6.33-3.45 7.99-2.76 1.7-6.34 1.51-8.79-.46-2.62-2.09-3.53-5.53-2.49-8.6.98-2.91 3.9-5.03 7.03-5.1 3.7-.07 6.85 2.48 7.7 6.17.6 2.62 4.63 1.51 4.03-1.11-1.09-4.74-5.07-8.43-9.89-9.09-4.88-.67-9.89 1.81-12.14 6.24-2.26 4.46-1.53 9.91 1.89 13.58 3.36 3.6 8.76 4.65 13.25 2.75 5.28-2.24 8.01-7.94 6.89-13.48-.22-1.11-1.54-1.74-2.57-1.46-1.15.31-1.68 1.46-1.46 2.57z" fill="#3314a6"/><path d="m1163.71 1454.45c.62 3.06-.75 6.33-3.45 7.99-2.76 1.7-6.34 1.51-8.79-.46-2.62-2.09-3.53-5.53-2.49-8.6.98-2.91 3.9-5.03 7.03-5.1 3.71-.06 6.86 2.49 7.7 6.17.6 2.62 4.63 1.51 4.03-1.11-1.09-4.74-5.07-8.43-9.89-9.09-4.88-.67-9.89 1.81-12.14 6.24-2.26 4.46-1.53 9.91 1.89 13.58 3.36 3.6 8.76 4.65 13.25 2.75 5.28-2.24 8.01-7.94 6.89-13.48-.22-1.11-1.54-1.74-2.57-1.46-1.15.32-1.68 1.46-1.46 2.57z" fill="#3314a6"/><path d="m1072.48 1188.11c-8.24-6.21-16.66-12.18-25.26-17.9-4.03-2.68-8.1-5.28-12.25-7.77-1.96-1.18-4.03-2.29-5.89-3.62.16.11-.14.29.03.09.15-.17.46-.61.78-.91 1.86-1.77 4.46-2.91 6.77-3.95 1.91-.86 3.87-1.63 5.86-2.26 7.79-2.45 16.19-2.21 23.99.03 16.05 4.6 30.04 17.89 35.63 33.64 1.24 3.48 2.16 7.1 3.05 10.68 1.22 4.9 2.41 9.95 2.6 15.01.04.94.01 2.36-.09 2.94-.07.39-.19.75-.29 1.13.06-.23-.14.3-.14.21 0 .1.35-.15.05-.04-.27.1.22-.14.27-.06-.52-.74-2.06-1.41-2.82-1.92-2.28-1.55-4.51-3.18-6.7-4.86-8.68-6.64-16.88-13.86-25.59-20.44-2.14-1.62-4.23 2-2.11 3.61 8.54 6.45 16.59 13.52 25.09 20.04 2.02 1.55 4.07 3.07 6.16 4.52 1.7 1.18 3.91 3.3 6.12 3.2 2.07-.09 3.37-1.83 3.86-3.69 1.29-4.87-.18-10.73-1.18-15.52-1.03-4.93-2.3-9.84-3.82-14.64-5.16-16.21-18.55-30.02-34.28-36.24-8.53-3.37-17.98-4.45-26.99-2.63-5.65 1.14-11.76 3.47-16.49 6.78-2.2 1.54-5.05 4.19-3.53 7.16.56 1.09 1.6 1.69 2.6 2.32 1.28.8 2.56 1.59 3.85 2.37 2.59 1.56 5.19 3.1 7.73 4.74 10.56 6.81 20.85 14.03 30.89 21.58 2.13 1.62 4.22-2 2.1-3.6z" fill="#3314a6"/><path d="m1113.95 1401.14c5.63 10.43 5.95 22.8 9.39 33.99 3.54 11.5 8.24 22.93 14.81 33.06 5.66 8.73 13.2 16.28 23.13 19.9 10.99 4 23.21 3.44 34.68 2.65 14.62-1.01 29.17-2.77 43.41-6.34 2.61-.65 1.5-4.68-1.11-4.03-12.44 3.12-25.14 4.92-37.93 5.88-11.16.84-22.82 1.87-33.8-.92-10.21-2.59-18.06-9.32-23.89-17.91-6.53-9.61-11.17-20.56-14.7-31.59-1.94-6.08-3.19-12.25-4.44-18.5-1.27-6.33-2.86-12.58-5.94-18.29-1.28-2.38-4.89-.27-3.61 2.1z" fill="#3314a6"/><path d="m1114.39 998.96 94.67-27.84 8.36 19.49 26.45 64.04 4.17 6.96-19.49 9.74-59.86 20.89-25.06 5.57z" fill="#d89bf2"/><path d="m1090.73 844.43 22.27 40.37 30.63 62.65 12.53 27.84-43.16 13.93-55.69-130.87 32.02-16.71z" fill="#d89bf2"/><path d="m1100.47 836.07 20.88-11.13 34.81 48.72 33.41 57.08 13.92 30.63-34.8 11.14-51.51-107.2z" fill="#d89bf2"/><path d="m1093.51 844.43-2.78-2.79 10.14-4.87 66.43 135.74 13.92-4.18 23.67-6.96 4.17 9.75-90.49 27.84-5.57-9.74 44.55-12.53z" fill="#9342d3"/><path d="m1211.85 951.63 6.96-2.79 44.55 101.63-6.96 4.18z" fill="#d89bf2"/><path d="m1220.2 948.84 9.75 1.39 5.56 4.18 16.71 30.63 19.49 51.51 2.79 8.35-9.75 5.57-23.67-57.08z" fill="#a1ccff"/><path d="m1210.45 950.23-8.35 4.18 45.25 107.55 7.65-4.53 1.4-1.39-40.02-93.93z" fill="#a1ccff"/><path d="m1273.24 1045.62-22.43 14.29-19.47 8.66-87.71 29.24 9.74 22.27 12.53 2.79 26.46-2.79 22.27-5.57h11.14l5.57 6.96 5.57 16.71 4.16 15.95 9.76-17.34 9.74-22.28 1.4-22.27v-18.1l5.56-15.31 8.24-7.5z" fill="#9342d3"/><path d="m1163.12 1305.24 23.67-38.98 2.78-1.39 98.85 68.22 142 91.88-9.74 12.53-33.42 29.24z" fill="#0012b7"/><path d="m1119.65 826.16c25.04 29.78 45.96 62.77 64.09 97.14 18.33 34.76 33.96 70.89 48.73 107.28 9.14 22.52 17.95 45.17 27.19 67.65 1.01 2.45 5.05 1.38 4.03-1.11-16.07-39.12-31.07-78.67-48.19-117.36-15.78-35.64-33.21-70.65-54.16-103.56-11.76-18.47-24.63-36.24-38.73-53-1.73-2.05-4.68.91-2.96 2.96z" fill="#3314a6"/><path d="m1059.71 861.34c13.47 33.06 26.95 66.11 40.42 99.17 3.32 8.15 6.67 16.3 9.54 24.62 2.83 8.21 5.29 16.54 7.82 24.84 5.19 16.99 10.38 33.98 15.57 50.97 5.87 19.2 11.73 38.39 17.6 57.59.78 2.56 4.82 1.47 4.03-1.11-10.38-33.98-20.77-67.96-31.15-101.94-5.13-16.79-10.22-33.49-16.82-49.78-6.68-16.5-13.43-32.97-20.15-49.45-7.61-18.67-15.22-37.35-22.83-56.02-1.01-2.46-5.05-1.38-4.03 1.11z" fill="#3314a6"/><path d="m1148.53 1098.6c16.22-3.51 32.2-8.16 47.9-13.53 18.02-6.16 35.79-13.34 52.7-22.11 8.9-4.62 17.57-9.71 25.72-15.56 2.16-1.55.08-5.18-2.11-3.61-14.77 10.6-31.19 18.84-47.88 25.97-16.93 7.23-34.39 13.29-52.08 18.37-8.39 2.41-16.84 4.6-25.37 6.44-2.62.58-1.5 4.6 1.12 4.03z" fill="#3314a6"/><path d="m1203.63 960.05c-23.03 7.87-46.25 15.2-69.76 21.52-6.51 1.75-13.04 3.43-19.59 5.03-2.61.64-1.5 4.67 1.11 4.03 23.47-5.74 46.66-12.5 69.63-19.97 6.59-2.14 13.16-4.34 19.71-6.58 2.54-.86 1.46-4.9-1.1-4.03z" fill="#3314a6"/><path d="m1206.42 969.8c-23.03 7.87-46.25 15.2-69.76 21.52-6.51 1.75-13.04 3.43-19.59 5.03-2.61.64-1.5 4.67 1.11 4.03 23.47-5.74 46.66-12.5 69.63-19.97 6.59-2.14 13.16-4.34 19.71-6.58 2.54-.87 1.45-4.9-1.1-4.03z" fill="#3314a6"/><path d="m1099.36 839.22c19.19 33.72 37.08 68.1 53.02 103.48 4.7 10.42 9.24 20.91 13.62 31.47 1.02 2.45 5.06 1.37 4.03-1.11-15.59-37.54-33.11-74.28-52.54-109.99-4.74-8.71-9.62-17.34-14.53-25.95-1.32-2.35-4.93-.24-3.6 2.1z" fill="#3314a6"/><path d="m1089.55 844.31c19.02 33.42 36.62 67.6 52.38 102.69 4.46 9.92 8.77 19.91 12.94 29.95 1.02 2.45 5.06 1.37 4.03-1.11-14.87-35.81-31.49-70.88-49.86-105.03-5.17-9.61-10.49-19.12-15.89-28.6-1.32-2.34-4.93-.24-3.6 2.1z" fill="#3314a6"/><path d="m1203.85 955.52c3.86-2.16 8.08-3.54 12.41-4.36 3.71-.7 7.39-.97 11 .33 7.03 2.52 10.81 9.56 13.95 15.81 4.31 8.57 8.08 17.41 11.71 26.28 3.61 8.82 7.27 17.61 10.72 26.5 3.92 10.12 7.53 20.37 10.31 30.86.69 2.6 4.72 1.49 4.03-1.11-5.22-19.72-13.31-38.52-21.02-57.36-3.85-9.42-7.83-18.8-12.43-27.88-3.45-6.82-7.72-13.63-15.07-16.71-4.26-1.79-8.64-1.7-13.12-.96-5.09.84-10.07 2.47-14.58 4.99-2.36 1.31-.26 4.92 2.09 3.61z" fill="#3314a6"/><path d="m1210.26 952.18c12.76 26.6 24.62 53.63 35.51 81.05 3.07 7.73 6.07 15.49 8.99 23.28.94 2.49 4.97 1.41 4.03-1.11-10.46-27.85-21.86-55.35-34.21-82.42-3.5-7.67-7.07-15.31-10.72-22.91-1.15-2.42-4.76-.31-3.6 2.11z" fill="#3314a6"/><path d="m1217.7 950.59c12.36 25.78 23.64 52.05 34.75 78.39 3.27 7.75 6.53 15.5 9.8 23.24.44 1.05 1.97 1.26 2.86.75 1.08-.62 1.19-1.82.75-2.86-11.21-26.5-22.21-53.09-34.12-79.29-3.4-7.48-6.88-14.93-10.43-22.34-1.16-2.42-4.77-.3-3.61 2.11z" fill="#3314a6"/><path d="m799.76 689.89-33.41-111.37-36.2-109.98-32.02-83.54-18.1-45.94-23.67-44.55-27.84-38.98-19.49-41.76-20.88-59.87-5.57-27.84 4.17-13.92 8.36-6.97h6.96l8.35 6.97 6.96 12.53-1.39-27.85 2.78-12.53 8.36-8.35 12.53 1.39 9.74 9.75 8.35 22.27 4.18-29.23 6.96-13.93 2.79-4.17 9.74 1.39 9.75 12.53 9.74 27.84 4.18-20.88 6.96-15.31 8.35-4.18 8.36 2.78 6.96 6.96 6.96 48.73 8.35 22.28 9.75 16.7 15.31 19.49-4.18-26.45 1.4-23.67 5.57-11.13 6.96-8.36h8.35l9.74 5.57 4.18 8.36 4.18 13.92v15.31l1.39 16.71 5.57 16.7 6.96 16.71 12.53 9.75 12.53 15.31 5.57 16.71 2.78 15.31v26.45l2.79 32.02 11.13 82.14 29.24 187.95 5.57 23.66 16.71-26.45 5.56-9.74 11.14 1.39 20.88-4.18 19.5-8.35 8.35-5.57 1.39 12.53 5.57 12.53 11.14 8.35-4.18 16.71 11.14 23.67 12.53 9.74h8.35v9.75l11.14 9.74 9.74 2.79 4.18 5.57 6.96 15.31 11.14 5.57 13.92-25.06 13.92-15.31 12.53-8.36 22.28-15.31 26.45-22.28 38.98-43.15 64.04-82.14 52.9-58.48 26.46-30.62 5.56-12.53 13.93-22.28 12.53-11.14 19.49-11.13 23.66-4.18 18.1-9.75 30.63-38.98 13.92-9.74 11.14-1.39 9.75 6.96 1.39 12.53-5.57 16.7-22.28 27.85-1.39 4.17 40.38-16.7 23.66-20.89 23.67-29.23 9.75-4.18 9.74 1.39 4.18 6.96v11.14l-6.96 20.88v2.79l9.74-5.57 15.32-12.53 13.92-2.78 5.57 2.78 2.78 8.35-12.53 37.59 8.35-6.96 12.53-6.96 13.93 1.39 8.35 8.36-1.39 12.53-13.93 22.27v4.18l12.53-5.57 6.97 1.39 6.96 6.96 1.39 11.14-4.18 11.14-41.76 37.59-32.02 26.45-22.28 13.92-20.88 11.14-30.63 11.13-37.59 18.1-86.32 62.65-218.57 183.77-23.67-37.59-41.76-75.18-38.98 79.36-54.3-12.53-6.96 1.39-2.78 41.77 2.78 29.23 1.39 4.18-19.49 19.49-19.49 19.49-13.92 11.14-18.1 6.96-26.45-4.18-8.35-20.88 4.17-25.06 8.36-30.63 1.39-23.67-18.1-12.53-13.92-20.88-2.79-29.23 2.79-27.85 5.57-15.31-13.93 6.96-84.92 47.33z" fill="#e9c0ff"/><path d="m1188.18 1263.48 23.19-38.34 18.58-14.57v12.53l8.35 16.71 18.59 16.16 62.16 39.53 22.27 9.74 43.16 16.71 7.56 6.81 3.58 14.07 6.96 23.67 8.92 23.13 4.29 7.5-10.43 11.13-142-94.66-76.57-50.12z" fill="#e9c0ff"/><path d="m994.67 829.11-13.93 13.93-13.92 11.13-22.27 6.96-15.32-1.39-18.1-5.57-4.17-9.74-1.4-16.71 5.57-15.31 2.79 1.39v12.53l1.39 12.53 5.57 8.35 6.96 2.79 13.92 2.78 16.71-4.18 20.88-12.53 18.1-18.09z" fill="#d91eba"/><path d="m994.67 830.51-15.32 15.31-11.14 52.9-9.74 51.51-4.18 34.81-1.39 64.04 1.39 65.43 5.57 48.73 11.14 59.86 22.27 71.01 59.87 4.17-25.06-32.02-15.32-25.06-15.31-30.63-11.14-43.15-5.57-54.3 1.4-75.18 6.96-118.33z" fill="#d91eba"/><path d="m944.55 861.13-18.24-2.29-11-1.88-9.75 37.59-9.74 64.04-4.18 40.37-1.39 58.47 2.79 51.51 6.96 54.3 11.13 58.47 16.71 66.83 26.45 2.78-8.35-26.45-12.53-59.86-12.53-84.93-4.18-83.53 4.18-69.61 12.53-72.39z" fill="#d91eba"/><path d="m900 1287.14-32.02-4.17-15.32-65.44-11.14-71-2.78-83.53 4.18-69.61 12.53-36.19 29.23-79.36 9.75-26.45v2.78l-11.14 54.3-12.53 82.14-4.18 97.45v22.28l4.18 37.59 5.57 44.55 11.14 48.72z" fill="#d91eba"/><path d="m817.86 1193.87 18.1 84.92h-19.5v-87.71z" fill="#d91eba"/><path d="m977.97 845.26-15.81 10.37-19.01 6.9-6.96 26.45-5.57 30.63-8.35 52.9-2.78 44.55-1.31 49.03 4.09 51.21 5.57 49.96 11.14 60.02 16.7 64.04 36.2 2.79-9.74-30.63-13.93-47.34-9.74-48.72-6.96-73.79v-66.83l6.96-82.13 13.92-72.4z" fill="#ff6cd2"/><path d="m916.7 856.96-4.17-2.79-8.36-23.66-19.49 59.86-5.57 30.63-8.35 52.9-2.78 44.55-1.31 49.04 1.31 53.98 6.96 51.51 9.74 55.69 15.32 58.47 27.84 1.4-8.35-23.67-11.14-48.73-8.35-48.72-8.36-73.79-2.78-68.22 8.35-87.71 13.92-61.25z" fill="#ff6cd2"/><path d="m840.13 1005.92-8.35 20.88-9.75 44.55-5.57 72.4v41.76l12.61 60.97 9.67 33.7 29.24 2.79-18.1-71-9.75-76.57-2.78-65.44z" fill="#ff6cd2"/><path d="m796.97 724.7 79.36-43.16 16.9-13.12-1.59 22.87 1.4 19.49 8.35 15.31 17.61 15.73 7.39 6.13-4.12 24.08-34.8 30.63-32.02 29.24-38.99-73.79z" fill="#fc00a4"/><path d="m1019.72 792.92 47.34-77.97 29.08-50.23 6.14-5.28 26.04 61.08 26.45 41.77 19.49 26.45v4.18l-136.44 76.57z" fill="#fc00a4"/><path d="m1053.14 859.74 4.17 13.92" fill="#fc00a4"/><path d="m1037.82 862.53 11.14 47.33 11.14 45.94 15.31 45.95 40.38 44.55-34.81-104.42-27.84-80.99z" fill="#fc00a4"/><path d="m1008.59 802.66-11.14 15.32-4.18 45.94-4.01 53.07-2.95 70.83-4.17 72.4v61.25l2.96 34.17 13.74 54.93 16.71 33.42 24.1 37.06 71.96 79.88 12.53 9.75 23.67-36.2 51.51-94.67 44.55-66.83-6.96-29.23-4.18-16.71-5.57-12.53-8.35-1.39-40.38 8.35-20.88-1.39-13.92-5.57-20.88-16.7-30.63-25.06-15.32-15.32-23.66-32.02-18.1-40.37-18.1-68.22-8.35-77.96z" fill="#fc00a4"/><path d="m913.92 804.05-13.92 13.93-29.24 36.19-54.3 83.53-13.92 29.24-12.53 33.41-16.7 72.4-57.08 229.71 8.35 1.39 18.1 12.53 50.12 34.81 20.88 6.96 1.39-57.08v-132.26l5.69-82.47 9.63-58.14 18.09-54.3 34.81-97.45 13.92-34.81z" fill="#fc00a4"/><path d="m1115.92 646.65-14.06 9.83-1.47 4.59 19.11 38.78 18.56 37.38 27.11 39.18 11.87 16.51 11.14-9.75v-8.35l-21.77-36.87-22.78-35.53z" fill="#d91eba"/><path d="m900 639.78-38.32 21.94-70.27 37.92-2.79 8.35 5.57 12.53 1.39 2.79 19.49-5.57 36.55-22.76 41.81-28.48z" fill="#d91eba"/><path d="m952.9 533.97-15.31 6.96-9.75 12.53-4.18 9.75 1.4 9.74 8.35 5.57 22.27-1.39 18.1-5.57 16.71-11.14v11.14l4.18 11.14 12.52 8.35 1.11 3.93-2.5 8.6.27 10.48 5.3 11.79 7.94 11.29 8.77 5.42 5.57 2.78 4.17 5.57 9.75 9.75 9.74 4.18 2.91 5.26 6.84 11.44v11.14l-4.18 9.74-13.92 13.93-16.71 2.78-12.53-4.18-2.65 8.36-.13 23.66v4.18h9.75l19.49-9.74 6.96-6.97 18.1-32.02 20.88-32.02-6.96-27.84-11.14-29.24-22.28-32.02-23.66-18.09-40.38-19.5-19.49-4.17-12.53-2.79z" fill="#0012b7"/><path d="m1061.49 858.35-9.01 2.91 2.05 8.23 12.96 33.15 41.14 122.19 8.55 25.64 6.96 6.96 2.78 34.81v11.14l25.06 16.7v-2.78l-26.45-89.1-18.1-57.08-40.37-98.85z" fill="#3314a6"/><path d="m1108.82 627.25-6.96 2.78-13.92 15.31 2.79 16.71 1.39 5.57 11.14-11.14 8.35-8.35z" fill="#eecef2"/><path d="m1094.9 592.44-4.17-1.39-18.1 18.1 4.17 12.53 5.57 2.78 9.75-9.74 8.35-9.75z" fill="#eecef2"/><path d="m1075.41 563.21-2.78-2.79-22.28 19.49 8.36 8.35 5.56 5.57 9.75-9.74 9.75-8.35z" fill="#eecef2"/><path d="m1043.39 536.75-1.39 1.4-12.53 9.74-8.35 9.75 8.35 6.96 5.57 1.39 8.35-6.96 12.53-11.14z" fill="#eecef2"/><path d="m1015.55 524.22h-1.39l-11.14 9.75-6.96 12.53 5.57 1.39 5.56 2.79 6.97-9.75 11.13-12.53z" fill="#eecef2"/><path d="m984.92 514.48h-1.39l-11.14 9.74-6.96 12.53 5.57 2.79 5.57 1.39 6.96-9.75 11.14-12.52z" fill="#eecef2"/><path d="m976.57 515.87-13.93 8.35-8.35 8.36 1.39 4.17 8.36 2.79 13.92-20.88z" fill="#ff6cd2"/><path d="m997.45 518.66-11.14 11.13-6.96 11.14 15.32 5.57 9.74-15.32 6.96-8.35z" fill="#ff6cd2"/><path d="m1026.69 529.79-9.75 9.75-8.35 11.14 9.74 5.56 9.75-8.35 8.35-8.35 2.79-2.79z" fill="#ff6cd2"/><path d="m1057.31 547.89-13.92 12.53-6.96 6.96 12.53 11.14 23.67-18.1z" fill="#ff6cd2"/><path d="m1085.16 575.74-15.32 12.52-5.57 6.97 6.97 11.13h2.78l19.49-16.7z" fill="#ff6cd2"/><path d="m1100.47 607.76-19.49 19.49 7.08 18.82 19.37-21.61z" fill="#ff6cd2"/><path d="m987.7 514.48 6.97-4.18 20.88-6.96 15.31 2.79 11.14 5.56 6.96 1.4h9.75l9.74 2.78 9.75 8.35 6.96 1.4 12.53-4.18 15.31 4.18 16.71 11.13 4.17 8.36 4.18 8.35 13.92 4.18 9.75 5.57 5.57 8.35 8.35 6.96 6.96 5.57v4.17l-31.16 32.62-30.1 23.07-9.74 4.18-2.79-18.1-6.96-25.06-12.53-23.67-13.92-19.49-13.92-12.53-22.27-15.31-26.46-12.53z" fill="#ff6cd2"/><path d="m731.54 1308.03-15.31 20.88-75.18 82.14-59.87 66.82-40.37 48.73-27.84 40.37-13.92 33.42-2.79 29.23 2.79 27.85 5.56 20.88 11.14 27.84 15.32 23.67 26.45 26.45 22.27 15.32 33.41 12.53 29.24 2.78 25.06-1.39 29.24-9.75 15.31-8.35 4.18 4.18 18.1 36.19 22.27 26.46 33.41 26.45 27.85 13.92 32.02 9.74 22.27 4.18 44.55-4.18 30.63-8.35 50.12-23.67 64.04-41.76 71-68.22 254.77-275.65-224.14-162.89-24.2 44.22-17.57 24-6.25-8.42-13.24 25.12-34.8 45.95-72.39 93.27-34.81 37.59-11.14 11.14 12.53-20.88 11.14-19.49 107.2-143.4 26.24-38.44-53.44-57.18-10.39 2.34-86.32-6.96-115.73-11.93-24.88-1.99-1.39 79.36-9.75-1.4-36.19-20.88z" fill="#4c0bd9"/><g fill="#3314a6"><path d="m1210.58 1223.35c-3.72 2.26-5.34 6.36-7.26 10.05-2.63 5.09-5.78 9.96-8.67 14.91-6.14 10.49-12.29 20.98-18.44 31.47-6.2 10.58-12.42 21.16-18.62 31.75-5.32 9.1-10.23 18.43-15.52 27.54-5.94 10.22-12.39 20.21-20.39 28.95-1.81 1.98 1.13 4.94 2.95 2.95 14.16-15.47 23.52-34.39 33.78-52.49 11.83-20.86 24.23-41.4 36.35-62.09 3.35-5.73 6.7-11.45 10.06-17.18 1.33-2.27 2.51-4.56 3.71-6.89 1.03-2.01 2.18-4.16 4.16-5.36 2.29-1.39.2-5.01-2.11-3.61z"/><path d="m1414.05 1396.31c-3.46 2.62-6.43 5.7-8.88 9.29-.62.91-.2 2.36.75 2.86 1.06.56 2.2.22 2.86-.75.28-.41.56-.81.86-1.21.06-.08.12-.16.18-.24.01-.02.31-.4.11-.14-.19.25.07-.09.11-.14.08-.1.15-.19.23-.29.61-.75 1.24-1.47 1.9-2.17.65-.68 1.32-1.33 2.02-1.96.37-.33.74-.65 1.12-.97.17-.14.34-.28.52-.42.1-.08.19-.16.29-.23-.06.05-.13.1-.19.15.08-.06.16-.12.24-.18.45-.34.8-.68.96-1.25.14-.5.08-1.17-.21-1.61-.56-.85-1.93-1.44-2.87-.74z"/><path d="m1007.19 803.36c-1.86 34.01.01 68.42 5.58 102.02 4.94 29.81 12.53 59.6 23.91 87.63 11.2 27.59 26.57 53.78 47.9 74.79 5.76 5.67 11.98 10.75 18.36 15.71 6.71 5.22 13.15 10.58 19.23 16.53 10.56 10.34 22.25 20.51 37.23 23.3 17.45 3.26 34.75-1.88 51.63-5.81 2.11-.49 4.22-.96 6.34-1.4 1.79-.37 4-1.1 5.81-.52 2.43.78 4 3.54 5.14 5.63 3.22 5.93 5.47 12.79 7.01 19.32 1.02 4.3 1.67 8.67 2.01 13.08.21 2.66 4.38 2.68 4.18 0-.68-8.76-2.55-17.25-5.69-25.45-1.94-5.05-3.86-11.03-8.11-14.66-2.86-2.44-5.98-2.49-9.55-1.81-4.25.81-8.47 1.82-12.67 2.84-8.55 2.06-17.13 4.27-25.9 5.19-8.39.89-17.04.67-25.1-2-7.02-2.33-13.33-6.44-18.99-11.14-5.94-4.94-11.14-10.63-16.91-15.75-6.43-5.71-13.44-10.72-20.1-16.16-23.42-19.16-40.68-44.72-53.16-72.07-12.42-27.22-20.33-56.35-26.19-85.63-6.66-33.29-9.15-67.57-8.25-101.49.11-4.05.27-8.1.49-12.15.13-2.69-4.05-2.68-4.2 0z"/><path d="m914.58 798.83c-1.59 8.49-3.13 17.06-3.23 25.73-.08 6.59.36 13.75 4.32 19.3 9.11 12.77 28.43 11.36 41.55 6.9 5.39-1.83 11-4.2 15.59-7.64 3.2-2.4 6.14-5.11 9.03-7.87 7.61-7.27 14.82-14.97 22.01-22.64 6.39-6.81 12.57-13.97 19.44-20.31 1.98-1.83-.98-4.77-2.95-2.95-5.51 5.08-10.51 10.76-15.62 16.23-7 7.48-13.99 14.97-21.23 22.21-5.5 5.5-10.94 11.17-17.8 14.79-6.56 3.46-13.76 6-21.15 6.8-6.99.76-14.63.38-20.73-3.48-6.72-4.26-8.19-11.78-8.27-19.2-.1-9.04 1.43-17.91 3.09-26.77.47-2.62-3.55-3.74-4.05-1.1z"/><path d="m913.99 801.41c-1.04 5.05-4.25 9.12-6.3 13.75-2.12 4.77-3.34 9.84-3.69 15.05-.56 8.51.73 19.63 7.74 25.46 7.56 6.29 18.5 7.3 27.97 7.23 10.71-.08 20.53-3.23 29.43-9.14 10.18-6.75 18.74-15.65 27.69-23.87 1.98-1.82-.98-4.77-2.95-2.95-14.14 12.98-28.52 29.53-48.84 31.51-4.99.49-10.04.3-15.01-.3-4.34-.52-8.7-1.42-12.56-3.58s-6.26-5.28-7.64-9.46c-1.32-4-1.8-8.24-1.75-12.44.06-5.38 1.13-10.78 3.34-15.7 2.19-4.87 5.5-9.14 6.6-14.47.54-2.6-3.49-3.72-4.03-1.09z"/><path d="m727.65 1309.06c-13.61 20.86-29.95 39.72-46.97 57.85-17.66 18.81-35.79 37.13-53.08 56.29-17.65 19.56-35.05 39.34-52.45 59.12-16.88 19.19-33.42 38.74-48.13 59.67-13.31 18.93-24.59 39.5-29.94 62.18-5.41 22.92-3.77 46.2 3.14 68.61 6.89 22.34 18.15 43.87 32.6 62.26 12.3 15.65 28.07 28.58 45.69 37.81 36.2 18.96 79.87 21.91 117.59 5.55 5.46-2.37 10.73-5.14 15.8-8.26 2.29-1.4.19-5.02-2.11-3.61-35.65 21.9-80.24 23.81-118.53 7.72-18.03-7.57-34.45-18.96-47.81-33.24-15.28-16.33-27.02-36.74-35.08-57.52-8.46-21.82-12.78-45.26-9.15-68.58 3.5-22.48 13.2-43.43 25.6-62.33 13.69-20.86 29.69-40.18 46.01-59.01 16.67-19.22 33.61-38.22 50.54-57.21 17-19.07 34.54-37.57 52.24-55.99 16.69-17.37 33.07-35.12 47.41-54.51 3.55-4.8 6.96-9.7 10.23-14.71 1.48-2.24-2.14-4.33-3.6-2.09z"/><path d="m829.26 1334.31c-8.52 23.12-21.83 43.94-33.16 65.7-11.74 22.52-21.97 45.94-31.77 69.36-19.89 47.54-37.72 96.34-50.03 146.43-6 24.4-11.38 49.35-12.96 74.48-1.48 23.59 1.34 47.01 8.45 69.56 10.77 34.15 30.64 65.42 58.22 88.42 26.69 22.25 59.57 36.05 94.1 39.74 40.44 4.33 80.41-5.89 116.72-23.35 42.59-20.48 80.93-50.11 115.68-81.86 36.5-33.36 69.41-70.33 102.85-106.68 36.1-39.23 71.71-78.9 107.38-118.53 32.79-36.43 65.62-72.53 101.4-106.06 8.75-8.2 17.59-16.31 26.47-24.37 1.99-1.81-.97-4.76-2.95-2.95-34.75 31.6-68.13 64.28-99.64 99.13-35.15 38.88-70.06 77.97-105.32 116.74-33.5 36.83-66.72 74.09-101.73 109.49-33.56 33.92-69.72 65.7-110.1 91.31-36.28 23-77.26 41.14-120.63 43.68-34.98 2.05-70.16-6.14-100.23-24.27-30.23-18.23-54.02-45.73-68.92-77.65-8.8-18.85-14.83-39.39-17-60.09-2.62-24.97.5-49.95 5.36-74.45 9.89-49.89 25.71-98.23 44.07-145.6 9.28-23.93 19.22-47.6 29.98-70.9 5.21-11.28 10.5-22.53 16.35-33.5 5.62-10.52 11.6-20.84 17.18-31.38 5.37-10.15 10.31-20.51 14.28-31.29.91-2.52-3.13-3.61-4.05-1.11z"/><path d="m1187.35 1266.92c31.52 21.01 63.11 41.93 94.72 62.81s63.24 41.73 94.87 62.59c17.72 11.69 35.46 23.37 53.13 35.15 2.24 1.49 4.34-2.12 2.11-3.61-31.51-21-63.17-41.77-94.78-62.62-31.63-20.86-63.25-41.72-94.83-62.65-17.72-11.74-35.42-23.5-53.1-35.28-2.25-1.49-4.35 2.12-2.12 3.61z"/><path d="m1113.36 1364.68c-16.12 30.98-38.65 57.95-60.33 85.11-22.7 28.44-45.21 57.04-68.11 85.32-6.04 7.46-12.2 14.84-18.63 21.97-3.29 3.65-6.64 7.23-10.09 10.72-2.56 2.59-5.05 5.42-8.03 7.52 1.02.79 2.05 1.57 3.07 2.36 11.73-30.69 35.22-54.87 55.84-79.74 11.39-13.73 21.85-28.18 32.15-42.73 10.9-15.41 21.51-31.01 32.16-46.59 11.73-17.17 23.51-34.32 35.79-51.1 1.59-2.17-2.03-4.26-3.61-2.11-22.18 30.32-42.73 61.78-64.3 92.53-10.47 14.92-21.03 29.85-32.58 43.96-10.41 12.73-21.4 24.99-31.53 37.95-11.22 14.36-21.39 29.62-27.93 46.72-.64 1.66 1.62 3.38 3.07 2.36 2.61-1.84 4.81-4.1 7.07-6.35 3.02-3.01 5.98-6.1 8.88-9.23 5.94-6.42 11.63-13.07 17.19-19.82 11.29-13.7 22.22-27.71 33.29-41.58 11.8-14.78 23.59-29.55 35.39-44.33 11.05-13.84 22.23-27.59 32.92-41.7 11.8-15.59 22.91-31.75 31.95-49.12 1.22-2.39-2.39-4.5-3.63-2.12z"/><path d="m1162.08 1306.57c15.13 9.27 29.5 19.71 43.73 30.3 14.18 10.55 28.38 21.04 42.76 31.31 29.27 20.92 58.87 41.39 88.04 62.46 16.52 11.93 32.9 24.06 48.99 36.56 2.1 1.63 5.07-1.31 2.95-2.95-28.55-22.19-57.98-43.21-87.51-64.06-29.44-20.78-58.96-41.45-87.85-63-15.97-11.92-32-23.81-49.01-34.23-2.29-1.41-4.39 2.21-2.1 3.61z"/><path d="m979.43 1296.75c3.07 18.37 10.91 35.95 22.05 50.84 11.38 15.22 26.26 27.85 43.85 35.28 11.04 4.66 23.1 7.16 35.08 5.78 2.64-.3 2.67-4.48 0-4.18-19.89 2.29-39.8-6.17-55.2-18.3-14.08-11.09-25.27-25.71-32.84-41.92-4.24-9.08-7.26-18.73-8.91-28.61-.45-2.65-4.47-1.52-4.03 1.11z"/><path d="m898.82 1343.59c-3.06-1.42-6.3-2.2-9.56-3.03-3.58-.91-7.17-1.82-10.75-2.73-6.94-1.77-13.88-3.53-20.83-5.3-6.81-1.73-13.62-3.45-20.55-4.63-7.17-1.22-14.39-2.2-21.58-3.26-2.63-.39-3.76 3.63-1.11 4.03 6.98 1.03 13.97 1.99 20.93 3.15 6.93 1.16 13.73 2.84 20.54 4.57 6.94 1.77 13.88 3.53 20.83 5.3 3.36.85 6.72 1.71 10.08 2.56 3.32.84 6.79 1.5 9.91 2.95 2.4 1.12 4.53-2.47 2.09-3.61z"/><path d="m824.98 1282.07c2.23 15.03 4.45 30.07 6.68 45.1.39 2.65 4.42 1.52 4.03-1.11-2.23-15.03-4.45-30.07-6.68-45.1-.4-2.65-4.42-1.53-4.03 1.11z"/><path d="m843.11 1283.62c.35 6.49.47 13.28-.56 19.72-.44 2.73-1.42 5.14-3.66 6.87-2.02 1.56-4.5 2.47-6.88 3.35-2.5.92-1.42 4.96 1.11 4.03 5.87-2.17 11.5-4.96 13.13-11.54.84-3.38.95-7.02 1.11-10.48.18-3.98.14-7.96-.07-11.94-.15-2.68-4.33-2.7-4.18-.01z"/><path d="m815.78 1281.4c7.65-.25 15.26.63 22.83 1.58 7.74.97 15.49 1.72 23.26 2.45 16.02 1.51 32.03 3.14 48.05 4.75 31.85 3.2 63.72 6.17 95.67 8.21 17.03 1.09 34.07 2.18 51.04 4.06 2.67.29 2.65-3.88 0-4.18-30.73-3.4-61.66-4.48-92.46-7.12-32.07-2.75-64.07-6.24-96.11-9.32-8.72-.84-17.46-1.54-26.16-2.63-8.66-1.09-17.35-2.28-26.1-1.99-2.7.1-2.72 4.28-.02 4.19z"/><path d="m996.06 815.89c-5.11 41.41-7.52 83.11-9.51 124.77-2.03 42.44-4.5 84.89-5.9 127.36-1.29 39.07-.77 78.76 8.5 116.94 4.54 18.69 11.3 36.79 20.4 53.74 8.79 16.39 19.55 31.66 31.24 46.1 11.99 14.8 25.01 28.73 38.32 42.35 6 6.14 12.07 12.13 17.53 18.76 5.36 6.5 10.54 13.24 16.71 19.01 2.77 2.59 5.75 4.96 9.04 6.86 2.33 1.35 4.44-2.26 2.11-3.61-14-8.08-22.24-23.51-33.36-34.76-13.16-13.32-26.22-26.74-38.47-40.91-24.8-28.71-45.64-60.58-56.43-97.24-11.07-37.62-12.59-77.24-11.72-116.2.93-41.56 3.57-83.11 5.55-124.62 1.97-41.25 4-82.52 8.44-123.6.54-4.99 1.12-9.97 1.73-14.95.32-2.66-3.86-2.64-4.18 0z"/><path d="m914.53 799.1c-23.77 24.09-43.89 51.51-62.63 79.61-19.16 28.72-38.58 57.79-52.2 89.63-6.79 15.88-12.33 32.26-16.56 49-4.54 17.97-8.3 36.15-12.63 54.18-8.74 36.38-18.2 72.58-27.1 108.92-8.82 36.02-17.64 72.06-24.88 108.44-.9 4.53-1.77 9.06-2.62 13.59-.49 2.63 3.53 3.75 4.03 1.11 6.8-36.3 15.35-72.23 24.09-108.09 8.78-35.99 18.03-71.86 26.86-107.84 4.42-18 8.61-36.06 12.7-54.14 3.87-17.09 8.43-33.94 14.61-50.35 6.09-16.16 13.5-31.82 22.11-46.79 8.59-14.93 18.07-29.39 27.47-43.82 18.51-28.45 38.05-56.43 61.08-81.45 2.82-3.06 5.7-6.08 8.62-9.04 1.89-1.92-1.06-4.88-2.95-2.96z"/><path d="m907.05 816.74c-9.21 13.16-14.94 28.31-20.04 43.44-5.49 16.31-11.14 32.54-16.96 48.74-12.4 34.51-25.72 68.84-36.44 103.92-5.29 17.31-9.68 34.89-12.37 52.8-2.71 18.04-4.51 36.21-5.68 54.41-2.39 37.22-2.19 74.54-2.19 111.81 0 37.43-1.1 74.79-2.09 112.19-.06 2.16-.11 4.31-.17 6.47-.03 1.26-.06 2.52-.09 3.77-.02.91.25 2.45-.04 3.29.32-.42.64-.83.96-1.25.62-.44 1.04.13.49-.26-.25-.17-.88-.24-1.16-.32-1.05-.32-2.08-.7-3.11-1.09-2.33-.87-4.63-1.82-6.92-2.8-6.21-2.65-12.14-5.97-17.98-9.35-8.07-4.66-15.89-9.75-23.44-15.22-6.48-4.69-12.39-10.07-18.71-14.96-6.81-5.27-14.25-9.83-22.83-11.41-2.63-.49-3.75 3.54-1.11 4.03 9.58 1.77 17.52 7.42 24.91 13.47 7.77 6.36 15.46 12.58 23.81 18.18 13.5 9.05 27.94 17.73 43.45 22.9 1.62.54 4.3 1.59 5.44-.33.97-1.62.39-4.7.44-6.51.08-3.23.16-6.47.25-9.7.32-12.22.68-24.43 1.04-36.65.69-23.59 1-47.17 1.01-70.78.02-47.43-.44-94.99 4.39-142.24 2.41-23.57 6.35-46.74 12.81-69.55 6.24-22.03 14.11-43.55 21.84-65.08 8.17-22.74 16.34-45.48 24.52-68.23 7-19.48 12.22-39.93 21.66-58.44 2.33-4.57 4.95-8.98 7.89-13.18 1.58-2.17-2.04-4.26-3.58-2.07z"/><path d="m978.03 843.18c-8.19 28.41-14.53 57.33-19.16 86.53-4.64 29.33-7.59 58.93-8.88 88.6-1.3 29.72-.94 59.51 1.07 89.18 2 29.47 5.16 59.21 11.29 88.12 6.37 30.07 16.21 59.23 24.97 88.65 1.1 3.69 2.18 7.39 3.24 11.1.74 2.58 4.77 1.48 4.03-1.11-8.41-29.39-18.39-58.33-25.56-88.07-6.95-28.83-10.58-58.48-12.99-88-2.4-29.47-3.15-59.08-2.28-88.64.88-29.74 3.39-59.44 7.66-88.89 4.19-28.91 10.03-57.59 17.68-85.78.96-3.54 1.95-7.06 2.96-10.58.75-2.59-3.28-3.7-4.03-1.11z"/><path d="m941.84 859.88c-8 27.77-14.26 56.03-18.58 84.61-4.19 27.75-6.6 55.76-7.28 83.82-.68 28.29.39 56.6 2.89 84.78 2.58 28.97 6.6 57.84 11.9 86.43 5.16 27.83 11.73 55.37 19.28 82.64.96 3.47 1.94 6.94 2.93 10.4.74 2.58 4.77 1.48 4.03-1.11-7.75-27.17-14.65-54.58-20.14-82.31-5.6-28.27-9.88-56.83-12.8-85.5-2.86-28.09-4.32-56.33-4.08-84.56.24-27.93 2.14-55.85 5.88-83.53 3.83-28.36 9.56-56.46 17.06-84.07.95-3.51 1.94-7.01 2.94-10.5.74-2.57-3.29-3.68-4.03-1.1z"/><path d="m913.99 857.1c-8 27.77-14.26 56.03-18.58 84.61-4.19 27.75-6.6 55.76-7.28 83.82-.68 28.29.39 56.6 2.89 84.79 2.58 28.97 6.6 57.84 11.9 86.43 5.16 27.83 11.73 55.37 19.28 82.64.96 3.47 1.94 6.94 2.93 10.4.74 2.58 4.77 1.48 4.03-1.11-7.75-27.17-14.65-54.58-20.14-82.31-5.6-28.27-9.88-56.83-12.8-85.5-2.86-28.09-4.32-56.33-4.08-84.56.24-27.93 2.14-55.85 5.88-83.53 3.83-28.36 9.56-56.46 17.06-84.07.95-3.51 1.94-7.01 2.94-10.5.75-2.59-3.28-3.69-4.03-1.11z"/><path d="m900.07 830.65c-8.14 28.22-14.85 56.85-20.18 85.73-5.48 29.69-9.53 59.66-12.01 89.76-2.48 30.03-3.39 60.21-2.38 90.33.98 29.43 3.98 58.69 8.98 87.71 5.36 31.13 12.48 61.92 20.88 92.37 1.09 3.95 2.2 7.9 3.33 11.85.74 2.58 4.77 1.48 4.03-1.11-8.64-30.29-16.2-60.87-21.98-91.84-5.45-29.17-9.15-58.52-10.61-88.16-1.47-29.88-.99-59.85 1.07-89.69 2.07-30.06 5.74-60.01 10.87-89.71 4.98-28.85 11.33-57.46 19.1-85.69.96-3.49 1.94-6.96 2.94-10.44.73-2.59-3.29-3.69-4.04-1.11z"/><path d="m840.06 994.86c-3.98 39.76-5.33 79.83-3.19 119.74 2.01 37.4 7.67 74.5 15.25 111.16 4.07 19.68 9.03 39.15 14.54 58.47.74 2.58 4.77 1.48 4.03-1.11-4.91-17.21-9.4-34.54-13.18-52.04-3.78-17.47-6.87-35.08-9.72-52.72-6.2-38.36-8.33-77.31-7.61-116.14.42-22.49 1.82-44.97 4.06-67.35.26-2.69-3.92-2.67-4.18-.01z"/><path d="m813.75 1171.45c4.62 28.59 9.08 57.24 15.83 85.42 1.97 8.23 4.12 16.42 6.44 24.56.74 2.58 4.77 1.48 4.03-1.11-7.95-27.89-13.49-56.29-18.21-84.88-1.38-8.36-2.72-16.73-4.07-25.1-.41-2.65-4.44-1.52-4.02 1.11z"/><path d="m924.96 746.53c-.83 18.78-4.63 37.31-11.17 54.93-.94 2.52 3.1 3.61 4.03 1.11 6.67-17.96 10.47-36.9 11.32-56.04.11-2.69-4.06-2.68-4.18 0z"/><path d="m923.09 1577.5c1.27 7.66 5.86 14.6 12.38 18.81 6.96 4.5 15.95 5.48 23.78 2.88 2.54-.85 1.45-4.88-1.11-4.03-6.85 2.28-14.46 1.48-20.56-2.46-5.66-3.66-9.36-9.72-10.46-16.32-.44-2.63-4.47-1.51-4.03 1.12z"/><path d="m1113.68 647.29c5.17 10.61 10.34 21.22 15.51 31.82 5 10.26 9.92 20.57 15.52 30.51 10.47 18.59 23.73 35.41 34.65 53.72 1.38 2.32 2.73 4.66 4.02 7.03 1.12 2.06 2.49 4.19 3.3 6.4.97 2.64-.82 5.14-2.59 6.97-4.62 4.78-10.97 7.71-16.6 11.12-19.49 11.83-39.13 23.43-58.99 34.63-19.86 11.19-39.96 21.98-60.37 32.15-2.6 1.3-5.21 2.58-7.81 3.86-2.41 1.18-.3 4.78 2.11 3.61 20.98-10.26 41.64-21.18 62.04-32.56s40.55-23.21 60.55-35.3c6.45-3.9 13.45-7.43 19.35-12.14 2.58-2.06 5.07-4.58 6.22-7.74 1.4-3.82-.38-7-2.13-10.35-10.1-19.31-23.68-36.48-35.11-54.98-6.07-9.82-11.3-20.1-16.37-30.46-5.26-10.75-10.49-21.52-15.74-32.28-1.32-2.7-2.64-5.41-3.95-8.11-1.18-2.42-4.79-.3-3.61 2.1z"/><path d="m1006.23 907.07c-4.07.8-8.15 1.59-12.22 2.39-1.07.21-1.79 1.55-1.46 2.57.37 1.14 1.42 1.68 2.57 1.46 4.07-.8 8.15-1.59 12.22-2.39 1.07-.21 1.79-1.55 1.46-2.57-.37-1.15-1.42-1.69-2.57-1.46z"/><path d="m1003.45 976.68c-4.07.8-8.15 1.59-12.22 2.39-1.07.21-1.79 1.55-1.46 2.57.37 1.14 1.42 1.68 2.57 1.46 4.07-.8 8.15-1.59 12.22-2.39 1.07-.21 1.79-1.55 1.46-2.57-.38-1.15-1.42-1.69-2.57-1.46z"/><path d="m1003.45 1050.46c-4.07.8-8.15 1.59-12.22 2.39-1.07.21-1.79 1.55-1.46 2.57.37 1.14 1.42 1.68 2.57 1.46 4.07-.8 8.15-1.59 12.22-2.39 1.07-.21 1.79-1.55 1.46-2.57-.38-1.14-1.42-1.68-2.57-1.46z"/><path d="m1003.45 1111.72c-4.07.8-8.15 1.59-12.22 2.39-1.07.21-1.79 1.55-1.46 2.57.37 1.14 1.42 1.68 2.57 1.46 4.07-.8 8.15-1.59 12.22-2.39 1.07-.21 1.79-1.55 1.46-2.57-.38-1.15-1.42-1.68-2.57-1.46z"/><path d="m1006.23 1170.19c-4.07.8-8.15 1.59-12.22 2.39-1.07.21-1.79 1.55-1.46 2.57.37 1.14 1.42 1.68 2.57 1.46 4.07-.8 8.15-1.59 12.22-2.39 1.07-.21 1.79-1.55 1.46-2.57-.37-1.14-1.42-1.68-2.57-1.46z"/><path d="m1036.09 1244.61c-3.25 2.59-6.49 5.17-9.74 7.76-.86.68-.77 2.25 0 2.95.91.84 2.04.73 2.95 0 3.25-2.59 6.49-5.17 9.74-7.76.86-.68.77-2.25 0-2.95-.91-.83-2.04-.73-2.95 0z"/><circle cx="802.54" cy="1273.22" r="6.96"/><circle cx="802.54" cy="1205.01" r="6.96"/><circle cx="806.72" cy="1124.26" r="6.96"/><circle cx="815.07" cy="1050.47" r="6.96"/><circle cx="834.56" cy="980.86" r="6.96"/><circle cx="861.01" cy="908.47" r="6.96"/><path d="m896.85 638.67c-31.33 19.96-63.99 37.87-97.08 54.73-3.62 1.84-8 3.43-10.64 6.67-2.19 2.69-2.55 6.1-1.88 9.41.69 3.41 2.4 6.6 4.14 9.58 2.02 3.47 4.08 6.91 6.06 10.41 9.74 17.25 18.65 34.95 27.72 52.55 4.93 9.57 10.18 18.98 15.01 28.6 4.03 8.02 7.7 16.52 13.95 23.12 1.85 1.96 4.8-1 2.95-2.95-5.41-5.72-8.75-13.11-12.2-20.08-3.97-8.02-8.35-15.83-12.47-23.76-8.89-17.11-17.5-34.36-26.75-51.27-2.28-4.17-4.59-8.31-6.96-12.43-1.68-2.92-3.52-5.77-5.08-8.76-1.41-2.69-2.97-6.02-2.45-9.15.65-3.84 4.93-5.39 7.98-6.94 15.99-8.1 31.83-16.48 47.5-25.17 17.72-9.83 35.22-20.05 52.31-30.94 2.26-1.45.17-5.07-2.11-3.62z"/><path d="m1015.85 721.26c-.75 5.85-.98 11.75-1.3 17.63-.33 5.96-.61 11.93-.72 17.9-.21 11.75.34 23.53 2.45 35.11.48 2.64 4.51 1.52 4.03-1.11-2.09-11.43-2.52-23.08-2.29-34.67.11-5.75.39-11.49.71-17.23.33-5.88.56-11.79 1.3-17.63.34-2.66-3.84-2.64-4.18 0z"/><path d="m928.23 576.02c-22.63 32.64-38.24 71.28-38.88 111.37-.16 10.23.66 20.7 5.08 30.07 2.14 4.54 5.07 8.64 8.21 12.54 3.13 3.89 6.41 7.79 9.95 11.31 3.67 3.65 7.9 6.03 12.88 7.41 4.93 1.37 10.03 2.22 15.1 2.84 10.69 1.3 21.6 1.01 32.15-1.2 10.37-2.17 20.1-6.54 28.89-12.43 8.49-5.69 16.3-12.7 21.99-21.24 1.5-2.24-2.12-4.34-3.61-2.11-4.86 7.29-11.48 13.41-18.61 18.45-7.02 4.95-14.77 9.1-23.01 11.59-9.92 2.99-20.37 3.96-30.69 3.4-5.01-.27-9.98-.91-14.9-1.89-4.88-.97-10-2.01-14.1-5-3.84-2.8-6.9-6.78-9.98-10.35-3.05-3.53-5.98-7.18-8.4-11.18-5.23-8.67-6.71-18.55-6.81-28.52-.19-18.86 3.22-37.66 9.14-55.53 6.78-20.47 16.92-39.72 29.19-57.42 1.55-2.21-2.07-4.3-3.59-2.11z"/><path d="m1040.1 669.97c5.97-4.73 14.68-2.57 19.61 2.55 4.68 4.87 6.39 12.14 5.27 18.7-2.44 14.34-16.85 25.83-31.3 25.48-7.38-.18-16.45-4.52-17.49-12.68-.34-2.63-4.52-2.66-4.18 0 1.1 8.66 8.75 14.93 17.09 16.4 8.65 1.53 17.67-.91 24.83-5.88 7.05-4.9 12.88-12.32 14.79-20.81 1.82-8.09.19-16.91-5.27-23.28-6.52-7.6-18.21-9.85-26.31-3.43-2.1 1.67.87 4.61 2.96 2.95z"/><path d="m1038.83 689.97c5.1.03 10.02 2.2 13.55 6.03.76.83 2.18.77 2.95 0 .83-.83.77-2.12 0-2.95-4.21-4.57-10.3-7.22-16.5-7.26-1.13-.01-2.09.96-2.09 2.09 0 1.14.96 2.09 2.09 2.09z"/><path d="m1044.99 692.62c-.81.56-1.68 1.03-2.58 1.42.17-.07.33-.14.5-.21-1.18.49-2.41.84-3.68 1.01-.48.07-1.02.56-1.25.96-.26.45-.37 1.11-.21 1.61.16.51.48.99.96 1.25.17.07.33.14.5.21.37.1.74.1 1.11 0 2.4-.34 4.76-1.27 6.76-2.65.45-.31.81-.7.96-1.25.14-.5.08-1.17-.21-1.61-.58-.88-1.9-1.4-2.86-.74z"/><path d="m956.81 692.37c-2.34.18-4.7.34-7.04.13-.84-.07-1.86-.24-2.93-.56-1.06-.32-1.82-.67-2.87-1.39-.93-.64-2.32-.18-2.86.75-.6 1.03-.19 2.22.75 2.86 4.37 2.98 9.91 2.78 14.94 2.39 1.09-.08 2.14-.9 2.09-2.09-.04-1.06-.91-2.18-2.08-2.09z"/><path d="m968.67 668.57c-.59-.61-6.17.88-7.1 1.07-6 1.21-11.91 2.47-18.01 3.14-3.1.34-6.22.57-9.33.66-1.59.05-3.19.06-4.78.04-.24 0-1.52.03-2.66.01-.9-.01-1.52.93-1.13 1.74 2.49 5.11 7.83 8.42 12.85 10.7 4 1.81 8.61 2.81 12.95 1.74 3.98-.99 7.43-3.43 10.17-6.43 1.75-1.92 3.22-4.08 4.48-6.35.63-1.14 1.17-2.33 1.75-3.49.37-.74 1.25-1.9.86-2.78-.02-.02-.04-.03-.05-.05z"/><path d="m938.73 627.09c-2.25 3.4-4.4 6.86-6.46 10.38-1.94 3.32-4.09 6.71-5.58 10.27-1.35 3.24-.58 7.11 3.35 7.8 1.79.31 3.67.21 5.48.25 2.15.05 4.3.09 6.46.14 2.69.06 2.69-4.12 0-4.18-3.43-.07-6.87-.07-10.29-.22-.83-.04-1.64 0-1.53-.96.15-1.39 1.13-2.75 1.77-3.95 3.2-5.96 6.69-11.77 10.41-17.42 1.48-2.25-2.13-4.35-3.61-2.11z"/><path d="m969.62 639.79c2.68-3.11 6.65-5.61 10.68-4.22 1.5.52 2.87 1.64 3.38 3.27.36 1.15.35 2.36.33 3.56-.02 1.43-.07 2.86-.1 4.3-.06 2.69 4.11 2.69 4.18 0 .07-3.1.56-6.61-.59-9.56-1.04-2.66-3.21-4.52-5.85-5.5-5.56-2.06-11.36 1.02-14.98 5.21-.74.85-.84 2.11 0 2.95.75.74 2.21.85 2.95-.01z"/><path d="m922.29 610.56c2.68-3.11 6.65-5.61 10.68-4.22 1.5.52 2.87 1.64 3.38 3.27.36 1.15.35 2.36.33 3.56-.02 1.43-.07 2.86-.1 4.3-.06 2.69 4.11 2.69 4.18 0 .07-3.1.56-6.61-.59-9.56-1.04-2.66-3.21-4.52-5.85-5.5-5.56-2.06-11.36 1.02-14.98 5.21-.74.85-.84 2.11 0 2.95.75.74 2.21.84 2.95-.01z"/><path d="m990.3 557c-3.38 10.75-.75 22.89 7.08 31.06 7.25 7.56 18.11 11.36 28.49 10.32 2.65-.27 2.68-4.45 0-4.18-9.18.92-18.63-2.13-25.17-8.73-7.09-7.14-9.36-17.84-6.36-27.36.79-2.57-3.24-3.67-4.04-1.11z"/><path d="m1005.58 594.62c-5.93 11.72-1.31 24.74 5.44 34.98 3.38 5.13 7.11 10.42 12.7 13.32 5.24 2.72 11.44 3.83 17.29 4.22 6.4.42 12.82-.66 17.92-4.77 2.09-1.69-.88-4.63-2.95-2.95-3.81 3.07-8.86 3.77-13.61 3.61-4.99-.17-10.31-1.04-14.93-2.96-5.26-2.19-8.65-6.49-11.78-11.06-3.08-4.48-5.87-9.25-7.42-14.5-1.72-5.82-1.81-12.27.97-17.78 1.19-2.39-2.41-4.51-3.63-2.11z"/><path d="m1032.12 646.1c4.72 12.1 15.99 20.73 28.89 22.17 1.12.13 2.09-1.05 2.09-2.09 0-1.23-.96-1.96-2.09-2.09-10.89-1.21-20.88-8.9-24.86-19.1-.41-1.05-1.4-1.78-2.57-1.46-1 .27-1.87 1.51-1.46 2.57z"/><path d="m990.45 557.57c-7.08 7.11-17.11 10.88-26.38 14.23-8.55 3.08-17.77 5.04-26.91 4.23-3.33-.29-7.13-1.22-9.28-4.01-1.87-2.42-2.21-5.74-1.87-8.69.96-8.4 6.88-16.52 13.88-21.01 4.4-2.82 9.54-4.97 14.71-5.9 2.64-.48 1.52-4.5-1.11-4.03-14.48 2.61-28.23 13.47-31.26 28.33-.78 3.83-.71 7.84.93 11.44 1.66 3.65 4.98 5.99 8.75 7.11 4.12 1.22 8.58 1.19 12.83.91 5.28-.35 10.45-1.2 15.52-2.73 6.15-1.86 12.21-4.3 18.05-6.98 5.51-2.53 10.78-5.64 15.09-9.96 1.9-1.89-1.05-4.85-2.95-2.94z"/><path d="m1113.28 645.58c-2.36-17.29-6.71-34.32-13.91-50.25-6.09-13.45-14.5-25.78-24.77-36.38-10.1-10.42-21.92-19.15-34.64-26.11-14.97-8.18-30.88-15.3-47.79-18.16-6.98-1.18-14.55-2.05-21.22.91-2.77 1.23-5.4 3.16-7.84 4.92-3.56 2.57-7.36 5.43-9.77 9.18-.97 1.51-1.69 3.36-1.31 5.17.46 2.2 2.37 3.63 4.31 4.53 3.32 1.53 7.04 1.92 10.62 2.39 4.12.53 8.19 1.15 12.23 2.14 8.57 2.09 16.84 5.27 24.83 8.97 14.01 6.48 27.47 14.2 39.21 24.28 10.97 9.42 20.38 20.59 27.56 33.15 8.35 14.62 13.63 30.86 16.88 47.33.83 4.21 1.52 8.45 2.1 12.7.15 1.13 1.58 1.72 2.57 1.46 1.21-.32 1.61-1.46 1.46-2.57-2.29-16.77-6.45-33.26-13.26-48.78-5.8-13.2-13.77-25.36-23.6-35.92-9.62-10.34-20.93-19.09-33.15-26.16-14.17-8.2-29.64-15.47-45.69-19-3.88-.85-7.79-1.33-11.72-1.86-3.04-.41-6.83-.7-9.41-2.55-.22-.16-.8-.75-.73-.64-.09-.13-.14-.22-.15-.31-.04-.29.1-.86.33-1.35.79-1.63 2.15-2.98 3.45-4.21 2.79-2.64 5.95-4.9 9.18-6.97.85-.55 1.72-1.12 2.6-1.61 2.99-1.66 6.48-2.13 9.86-2.13 7.64 0 15.48 1.83 22.75 4.03 8.15 2.46 15.99 5.8 23.63 9.54 13.23 6.48 25.8 14.1 36.82 23.94 10.53 9.41 19.5 20.46 26.35 32.82 7.95 14.34 13.01 30.18 16.14 46.22.8 4.11 1.47 8.24 2.04 12.38.15 1.13 1.58 1.72 2.57 1.46 1.22-.31 1.62-1.45 1.47-2.56z"/><path d="m1010.59 522.05c-6.71 6.5-12.74 13.61-16.81 22.08-.49 1.02-.28 2.26.75 2.86.91.53 2.37.27 2.86-.75 3.93-8.18 9.68-14.96 16.16-21.24 1.93-1.87-1.03-4.82-2.96-2.95z"/><path d="m995.28 516.48c-7.06 6.28-13.01 13.59-17.68 21.81-1.33 2.34 2.27 4.45 3.61 2.11 4.52-7.93 10.21-14.9 17.03-20.96 2-1.79-.96-4.74-2.96-2.96z"/><path d="m978.57 515.09c-5.84 6.16-10.46 13.51-14.21 21.1-.5 1.01-.27 2.26.75 2.86.92.54 2.36.27 2.86-.75 3.59-7.27 7.96-14.35 13.55-20.25 1.85-1.96-1.1-4.91-2.95-2.96z"/><path d="m1025.25 527.81c-7.64 6.09-14.14 13.54-19.22 21.88-1.4 2.3 2.21 4.4 3.61 2.11 4.9-8.06 11.19-15.15 18.57-21.03.88-.7.73-2.22 0-2.95-.88-.89-2.07-.72-2.96-.01z"/><path d="m1040.46 535.1c-8.67 6.2-16.98 12.78-22.71 21.93-1.43 2.28 2.18 4.38 3.61 2.11 5.33-8.52 13.15-14.66 21.21-20.43.92-.66 1.36-1.82.75-2.86-.53-.91-1.94-1.41-2.86-.75z"/><path d="m1057.61 545.9c-8.55 5.5-16.36 12.11-23.17 19.66-1.8 1.99 1.15 4.95 2.95 2.95 6.58-7.29 14.07-13.69 22.33-19 2.25-1.46.16-5.07-2.11-3.61z"/><path d="m1071.18 558.97c-8.07 5.69-15.7 11.99-22.79 18.86-1.93 1.87 1.02 4.82 2.95 2.95 6.84-6.62 14.17-12.72 21.95-18.2.92-.65 1.35-1.82.75-2.86-.53-.91-1.93-1.41-2.86-.75z"/><path d="m1084.06 573.96c-7.74 5.24-14.94 11.26-21.43 17.99-1.87 1.94 1.08 4.89 2.95 2.95 6.25-6.48 13.13-12.29 20.59-17.33 2.22-1.5.13-5.12-2.11-3.61z"/><path d="m1092.98 588.46c-4.06 2.71-7.87 5.76-11.64 8.85-3.48 2.85-7 5.65-9.55 9.41-.63.93-.18 2.31.75 2.86 1.03.6 2.22.19 2.86-.75 2.32-3.42 5.73-5.98 8.9-8.57 3.5-2.86 7.03-5.68 10.8-8.19.94-.63 1.34-1.84.75-2.86-.56-.93-1.93-1.38-2.87-.75z"/><path d="m1099.95 604.85c-7.19 6.16-13.76 12.9-19.75 20.23-.71.87-.85 2.1 0 2.95.74.74 2.24.88 2.95 0 6-7.32 12.57-14.07 19.75-20.23.86-.73.75-2.2 0-2.95-.84-.85-2.09-.74-2.95 0z"/><path d="m1105.12 624.73c-7.18 5.89-13.47 12.78-18.76 20.41-.64.93-.17 2.32.75 2.86 1.04.61 2.21.18 2.86-.75 5.09-7.33 11.21-13.9 18.11-19.56.87-.72.74-2.21 0-2.95-.87-.87-2.09-.72-2.96-.01z"/><path d="m987.01 516.55c13.75-6.74 31.08-14.96 46.12-6.97 3.36 1.79 6.24 4.42 9.92 5.6 4.07 1.31 7.99-.18 12.09-.3 8.06-.23 14.62 5.41 20.64 10.02 3.16 2.41 6.5 3.29 10.41 2.37 3.92-.92 7.38-3.08 11.51-3.09 4.21 0 8.3 1.6 12.06 3.35 3.25 1.52 6.46 3.17 9.51 5.07 5.85 3.64 10.98 8.36 13.16 15.06 1.18 3.62 2.84 6.21 6.49 7.66 3.49 1.39 7.29 1.91 10.83 3.22 4.06 1.5 7.96 3.65 11.01 6.75 1.5 1.52 2.9 3.29 3.72 5.28.73 1.76 1.16 3.6 2.37 5.12 2.07 2.61 5.78 3.79 8.62 5.36 3 1.66 4.91 3.73 5.83 7.09.71 2.59 4.74 1.49 4.03-1.11-.86-3.15-2.46-5.85-5.06-7.85-2.37-1.82-5.17-2.94-7.76-4.41-1.45-.82-2.46-1.48-3.14-3.03-.73-1.66-1.17-3.37-2.12-4.93-2.08-3.43-5.07-6.25-8.42-8.43-3.47-2.26-7.4-3.82-11.35-4.99-2.98-.88-7.77-1.12-9.75-3.85-1.03-1.43-1.31-3.37-1.95-4.99-.69-1.74-1.55-3.39-2.61-4.93-2.05-2.97-4.62-5.47-7.47-7.66-5.9-4.53-13.08-8.34-20.16-10.62-4.06-1.31-8.42-1.82-12.59-.74-3.54.92-7.41 3.55-11.18 2.79-1.84-.37-3.33-1.71-4.76-2.84-1.69-1.34-3.41-2.67-5.19-3.89-3.35-2.3-7.02-4.32-10.98-5.31-4.09-1.02-7.76-.36-11.85.11-4.56.52-7.61-1.66-11.26-4.03-7.57-4.9-16.59-5.98-25.38-4.67-9.72 1.45-18.69 5.89-27.42 10.17-2.44 1.2-.32 4.8 2.08 3.62z"/><path d="m1114.64 644.3c-17.5 10.85-27.34 29.72-37.71 46.79-6.31 10.39-13 20.55-19.38 30.9-6.7 10.86-13.26 21.81-19.54 32.92-6.91 12.22-14.11 24.61-19.3 37.68-.99 2.5 3.05 3.58 4.03 1.11 4.52-11.39 10.79-22.19 16.74-32.88 6.1-10.95 12.49-21.74 19.04-32.43 6.46-10.55 13.14-20.97 19.72-31.45 5.26-8.39 10.05-17.08 15.59-25.3 6.18-9.17 13.43-17.84 22.92-23.73 2.28-1.42.19-5.03-2.11-3.61z"/><path d="m1016.23 752.5c5.88 1.49 11.71.74 17.17-1.81 5.77-2.7 11.35-5.91 16.99-8.88 2.38-1.25.27-4.86-2.11-3.61-5.12 2.69-10.21 5.45-15.36 8.08-4.96 2.53-10.11 3.58-15.58 2.19-2.61-.65-3.72 3.37-1.11 4.03z"/><path d="m1098.47 658.71c3.6 9.88 8.06 19.4 12.68 28.83 4.33 8.85 8.68 17.68 13.13 26.47 8.89 17.56 18.25 34.92 29.14 51.34 6.15 9.27 12.79 18.22 20.01 26.69 1.75 2.05 4.69-.92 2.95-2.95-25.24-29.61-42.53-64.83-59.59-99.52-5.16-10.48-10.29-20.99-14.29-31.98-.92-2.49-4.96-1.41-4.03 1.12z"/><path d="m798.29 726.48c6.61-1.93 12.76-5.07 18.75-8.42 6.29-3.52 12.55-7.12 18.81-10.71 12.63-7.25 25.19-14.63 37.48-22.45 6.88-4.38 13.68-8.91 20.35-13.61 2.18-1.54.1-5.16-2.11-3.61-23.46 16.54-48.42 30.76-73.35 44.92-6.75 3.83-13.54 7.66-21.03 9.85-2.59.75-1.49 4.78 1.1 4.03z"/><path d="m652.6 214.88c-12.14-15.24-21.19-32.88-26.43-51.65-2.44-8.73-3.34-17.86-5.29-26.7-2.09-9.51-4.64-20.3-11.07-27.93-6.42-7.62-16.74-6.68-23.36.41-5.72 6.13-7.26 14.88-6.31 22.96 1.22 10.4 5.18 20.55 8.22 30.52 6.09 19.98 11.71 40.21 19.3 59.7 3.55 9.12 7.56 18.08 12.35 26.62 5.26 9.37 11.54 18.1 17.98 26.68 7.74 10.32 16.37 20.27 23.08 31.31 8.08 13.29 14.35 27.75 20.49 42.01 8.98 20.87 17.22 42.05 25.21 63.31 9.36 24.88 18.31 49.91 27.03 75.02 8.92 25.68 17.57 51.45 25.99 77.3 7.56 23.22 14.93 46.51 22 69.89 5.39 17.82 10.66 35.7 15.36 53.72.83 3.19 1.64 6.39 2.41 9.59.63 2.61 4.66 1.51 4.03-1.11-3.82-15.86-8.35-31.55-12.96-47.19-6.45-21.92-13.24-43.74-20.2-65.51-8.01-25.05-16.25-50.01-24.73-74.9-8.59-25.22-17.4-50.35-26.55-75.37-8.2-22.44-16.65-44.79-25.65-66.92-6.83-16.78-13.86-33.55-22.09-49.7-2.71-5.32-5.54-10.62-8.86-15.59-9.34-14.01-20.58-26.75-30.14-40.63-11.61-16.86-19.67-35.41-26.18-54.75-6.63-19.7-12.38-39.71-18.42-59.59-2.79-9.19-5.81-19.38-1.97-28.73 2.16-5.26 7.31-10.57 13.44-10.41 8.43.22 12.34 11.97 14.42 18.44 3.1 9.66 4.71 19.7 6.48 29.66 2.48 13.94 7.7 27.39 14.4 39.82 4.32 8.01 9.39 15.55 15.06 22.67 1.68 2.11 4.61-.87 2.96-2.95z"/><path d="m618.77 126.75c-.16-10.32-2.31-20.47-1.37-30.82.47-5.21 1.79-10.95 5.88-14.55 4.15-3.65 10.02-3.54 14.85-1.37 12.43 5.59 14.62 20.31 16.8 32.25 2.54 13.91 6.31 27.56 11.38 40.76 5.74 14.93 13.01 29.24 21.74 42.65 1.46 2.24 5.08.15 3.61-2.11-16.46-25.29-27.48-53.6-32.85-83.27-2.31-12.73-5.28-27.47-18.12-33.68-5.27-2.55-11.43-3.28-16.81-.62-5.28 2.61-8.32 8.01-9.65 13.55-2.96 12.34.19 24.79.38 37.2.03 2.7 4.2 2.71 4.16.01z"/><path d="m660.54 117.01c-.28-12.82-.17-25.99 3.57-38.37.93-3.08 2.09-6.08 3.58-8.93 1.13-2.16 2.47-4.67 4.84-5.67 3.86-1.63 8.06 1.99 10.54 4.52 8.57 8.72 11.79 21.69 14.05 33.33 2.67 13.79 3.57 27.93 7.32 41.51 4.06 14.72 10.97 28.39 20.33 40.44 1.65 2.12 4.58-.85 2.95-2.95-8.78-11.3-15.23-24.27-19.09-38.04-3.98-14.15-4.82-28.92-7.71-43.29-2.46-12.23-6.22-25.64-15.49-34.56-3.32-3.19-7.84-6.24-12.68-5.34-5.78 1.07-8.59 7.3-10.61 12.15-5.9 14.16-6.1 30.1-5.77 45.2.05 2.68 4.23 2.69 4.17 0z"/><path d="m702.3 108.66c.53-5.65 1.51-11.27 2.68-16.82 1.16-5.53 2.37-11.3 4.64-16.5 2.17-4.95 6.54-10.32 12.55-9.8 5.94.52 9.58 6.32 11.22 11.45 2.01 6.25 2.81 12.95 3.64 19.44.87 6.82 1.59 13.67 2.73 20.46 1.98 11.8 5.68 23.18 11.25 33.78 6.09 11.6 14.29 22.1 24.06 30.82 2 1.78 4.96-1.16 2.95-2.95-9.19-8.19-16.88-17.91-22.75-28.73-6.15-11.35-9.9-23.6-11.86-36.34-1.11-7.17-1.81-14.39-2.81-21.58-.93-6.65-1.83-13.68-4.67-19.84-2.46-5.34-7.18-9.97-13.25-10.64-6-.66-11.41 3.2-14.6 7.99-3.72 5.58-5.21 12.64-6.66 19.1-1.48 6.64-2.68 13.38-3.31 20.16-.23 2.67 3.95 2.65 4.19 0z"/><path d="m778.8 179.1c-1.79-8.37-3.36-16.8-4.2-25.32-.81-8.21-1.22-16.84.9-24.9 1.88-7.15 6.4-15.62 14.91-15.47 9.03.16 15.13 8.65 17.21 16.58 2.37 9.07 1.67 18.75 2.35 28.03.64 8.79 1.86 17.65 4.63 26.04 2.71 8.21 6.92 15.66 12.75 22.06 5.82 6.38 12.69 11.75 18.13 18.49 6.22 7.72 8.85 17.3 10.64 26.88 1.89 10.1 2.46 20.48 1.53 30.72-.96 10.53-.12 20.68 1.44 31.11 1.58 10.6 3.05 21.22 4.53 31.83 5.96 42.65 12.15 85.27 18.57 127.86 3.22 21.36 6.5 42.7 9.84 64.04 1.67 10.67 3.35 21.33 5.05 32 1.64 10.29 3.02 20.68 5.19 30.87 1.03 4.81 2.34 9.55 4.1 14.15.95 2.48 4.99 1.41 4.03-1.11-3.79-9.88-5.34-20.36-7.01-30.75-1.76-10.99-3.51-21.98-5.24-32.98-3.49-22.15-6.92-44.32-10.28-66.49-6.69-44.07-13.13-88.18-19.32-132.32-1.54-10.95-2.96-21.93-4.61-32.86-1.68-11.12-3.39-22.23-2.28-33.5 1.01-10.34.66-20.66-1.01-30.92-1.57-9.63-3.93-19.74-9.51-27.91-5.07-7.42-12.08-13.11-18.34-19.47-6.57-6.66-11.39-14.28-14.27-23.2-2.86-8.87-4.01-18.17-4.55-27.44-.56-9.54.07-19.55-3.05-28.72-2.6-7.65-8.39-14.55-16.48-16.62-7.73-1.98-14.86 1.87-18.96 8.4-4.28 6.81-5.51 15.18-5.63 23.08-.14 9 1.05 18.01 2.59 26.86.7 4.04 1.5 8.07 2.36 12.08.52 2.64 4.55 1.53 3.99-1.1z"/><path d="m744.71 238.01c-5.64 5.7-7.76 13.57-8.26 21.38-.53 8.18-.57 17.38 2.6 25.07 1.01 2.45 5.05 1.38 4.03-1.11-2.9-7.03-2.85-15.13-2.52-22.61.32-7.13 1.93-14.53 7.11-19.77 1.89-1.92-1.06-4.87-2.96-2.96z"/><path d="m756.01 288.5c-4.41 6.38-12.15 9.99-19.85 9.55-2.69-.15-2.68 4.02 0 4.18 9.22.53 18.23-4.06 23.45-11.62.64-.93.17-2.32-.75-2.86-1.03-.61-2.21-.18-2.85.75z"/><path d="m1567.56 437.81c17.36-6.11 33.5-15.31 47.56-27.2 7.94-6.72 14.39-14.79 21.59-22.26 4-4.15 8.17-8.22 12.74-11.75 3.68-2.85 7.84-5.65 12.45-6.68 3.87-.87 7.39.34 9.82 3.51 5.44 7.08 3.33 16.61-1.29 23.5-5.44 8.12-13.93 14.24-21.22 20.58-8.04 7-16.07 14.01-24.12 20.99-14.83 12.85-29.98 25.54-46.99 35.45-18.08 10.53-38.2 17.17-57.67 24.61-6.1 2.33-11.9 4.9-17.6 8.09-14.46 8.08-28.15 17.58-41.66 27.13-18.57 13.13-36.75 26.8-54.77 40.67-20.68 15.91-41.12 32.12-61.42 48.52-20.54 16.6-40.92 33.39-61.15 50.37-18.09 15.18-36.05 30.51-53.82 46.07-13.53 11.85-27 23.8-40.06 36.16-2.31 2.18-4.6 4.38-6.86 6.6-1.92 1.88 1.03 4.84 2.95 2.95 11.74-11.51 24-22.49 36.3-33.4 17.24-15.29 34.72-30.31 52.3-45.2 20.14-17.05 40.45-33.9 60.91-50.56 20.69-16.85 41.54-33.52 62.61-49.9 18.89-14.69 37.95-29.17 57.37-43.15 14.54-10.46 29.25-20.82 44.68-29.94 20.82-12.31 44.32-18.03 66.43-28.34 18.16-8.46 34.31-20.37 49.64-33.15 16.07-13.39 31.93-27.16 47.48-41.15 6.64-5.97 13.1-13.02 14.88-22.07 1.34-6.83-.12-14.5-5.42-19.37-7.53-6.93-17.77-1.87-24.74 3.24-9.09 6.67-16.67 15.17-24.17 23.52-9.48 10.55-20.47 19.37-32.74 26.52-7.99 4.66-16.4 8.53-25.12 11.61-2.52.89-1.43 4.92 1.11 4.03z"/><path d="m1645.51 379.13c6.32-9.78 14.65-18.06 19.14-28.99 2.57-6.26 3.5-13.76-.59-19.63-3.18-4.56-8.35-6.97-13.76-7.62-13.5-1.63-23.74 8.1-32.15 17.31-9.75 10.68-20.09 20.69-31.59 29.48-13 9.94-27.09 18.44-41.93 25.33-2.44 1.13-.32 4.73 2.11 3.61 24.9-11.57 47.67-27.69 66.82-47.36 4.63-4.76 8.88-9.9 13.68-14.5 4.43-4.24 9.61-8.18 15.73-9.46 4.83-1.01 10.29-.4 14.44 2.38 5.15 3.45 6.13 9.74 4.58 15.4-3.37 12.34-13.33 21.48-20.09 31.92-1.46 2.29 2.16 4.38 3.61 2.13z"/><path d="m1615.27 348.72c8.49-12.94 17.03-26.99 19.23-42.58.71-4.99 1.3-11.28-3.02-14.91-3.28-2.76-7.81-2.84-11.84-2.21-11.17 1.73-20.61 9.27-28.51 16.88-10.64 10.25-19.13 22.43-29.53 32.89-11.55 11.62-25.43 20.7-40.83 26.34-2.5.92-1.42 4.96 1.11 4.03 13.06-4.79 25.1-11.83 35.66-20.89 10.61-9.1 18.95-20.3 28.21-30.69 4.71-5.28 9.67-10.37 15.2-14.8 3.99-3.19 8.3-6.15 13.11-7.94 3.53-1.32 7.65-2.49 11.44-1.83 3.88.68 5.35 3.65 5.31 7.39-.08 8.27-2.9 16.55-6.34 23.98-3.6 7.78-8.12 15.08-12.82 22.24-1.47 2.25 2.15 4.34 3.62 2.1z"/><path d="m1584.28 319.5c2.71-5.4 5.01-11.02 7.09-16.69 2.12-5.78 4.26-11.78 5.02-17.91.72-5.79-.41-12.39-5-16.44-4.67-4.13-11.3-4.11-16.77-1.66-5.95 2.67-10.5 7.94-14.71 12.74-4.49 5.13-8.68 10.52-13.02 15.78-8.31 10.09-17.43 19.17-28.53 26.18-11.88 7.51-25.15 12.58-39 14.96-2.64.45-1.52 4.48 1.11 4.03 23.44-4.02 45.29-15.83 61.53-33.19 8.82-9.42 16.16-20.11 25.09-29.43 4.06-4.24 9-8.66 15.24-8.61 5.77.05 9.39 4.8 10.01 10.22.76 6.74-2.02 13.83-4.23 20.08-2.14 6.07-4.54 12.08-7.44 17.84-1.2 2.38 2.4 4.5 3.61 2.1z"/><path d="m1481.39 339.52c6.52-6.73 12.83-13.68 18.49-21.16 5.36-7.07 10.41-14.85 12.64-23.54 2.14-8.35 1.46-18.33-6.42-23.47-6.71-4.37-16.08-3.34-22.75.56-8.38 4.9-13.61 13.46-18.91 21.29-5.35 7.89-11.09 15.58-18.02 22.16-7.01 6.66-15.14 11.69-24.49 14.3-9.78 2.73-20.04 3.6-29.41 7.74-9.31 4.11-16.87 11.79-23.42 19.39-6.79 7.88-12.29 16.49-16.95 25.77-4.68 9.3-11.48 17.21-18.22 25.05-7.52 8.75-14.86 17.67-22.28 26.51-30.16 35.94-60.4 71.81-90.74 107.6-28.05 33.08-56.09 67.27-91.1 93.33-4.25 3.17-8.71 6.04-12.98 9.18-2.14 1.57-.06 5.2 2.11 3.61 4.46-3.27 9.11-6.28 13.54-9.6 4.06-3.04 8.04-6.18 11.93-9.42 7.86-6.54 15.38-13.47 22.65-20.66 15.07-14.91 28.97-30.93 42.76-47.01 29.87-34.82 59.28-70.04 88.84-105.12 14.37-17.05 28.77-34.08 43.09-51.18 3.16-3.77 6.23-7.64 8.99-11.72 2.81-4.16 4.95-8.6 7.31-13.02 4.85-9.1 11.01-17.46 18.12-24.91 3.44-3.61 7.07-7.15 11.16-10.04s8.58-4.91 13.37-6.32c9.56-2.81 19.66-3.59 28.93-7.4 17.19-7.05 29.01-22.19 39.1-37.17 5.06-7.52 10.5-16.49 19.31-20.05 7.01-2.83 16.52-2 20.08 5.59 3.71 7.93-.29 17.97-4.24 25.01-4.55 8.12-10.5 15.41-16.67 22.34-2.85 3.2-5.78 6.31-8.76 9.39-1.88 1.95 1.07 4.91 2.94 2.97z"/><path d="m1472.12 405.55c1.67 7.47-1.22 14.84-4.92 21.23-3.52 6.07-7.51 12.65-13.32 16.79-2.17 1.55-.09 5.17 2.11 3.61 6.59-4.7 11.17-11.89 15.12-18.82 4.14-7.26 6.92-15.52 5.03-23.91-.58-2.63-4.61-1.52-4.02 1.1z"/><path d="m1435.65 441.28c.41 9.18 5.7 17.83 13.78 22.26 2.36 1.29 4.47-2.31 2.11-3.61-6.77-3.71-11.36-10.91-11.71-18.65-.12-2.67-4.3-2.69-4.18 0z"/><path d="m1019.38 793.07c9.24 39.99 18.48 79.99 27.73 119.98 2.3 9.94 4.59 19.88 6.89 29.83 2.2 9.51 4.23 19.1 7.24 28.4 5.21 16.1 13.28 31.18 23.1 44.91 11.03 15.42 24.16 29.23 38.36 41.76-.2-.49-.41-.98-.61-1.48 1.17 13.57 2.34 27.15 3.5 40.72.16 1.9.33 3.8.49 5.7.23 2.66 4.41 2.68 4.18 0-.93-10.78-1.86-21.56-2.78-32.34-.39-4.58-.73-9.17-1.18-13.75-.14-1.39-.9-2.04-1.93-2.95-2.29-2.04-4.54-4.11-6.76-6.21-4.45-4.22-8.78-8.58-12.93-13.1-16.41-17.85-30.38-38.39-38.41-61.4-4.63-13.26-7.28-27.2-10.44-40.87-3.34-14.46-6.68-28.92-10.03-43.38-6.63-28.7-13.26-57.39-19.89-86.09-.84-3.62-1.67-7.23-2.51-10.85-.6-2.61-4.63-1.5-4.02 1.12z"/><path d="m922.38 771.25c-10.19 5.02-18.53 12.88-26.57 20.75-8.29 8.12-16.57 16.25-24.76 24.48-16.39 16.46-32.42 33.31-47.24 51.2-14.75 17.8-28.36 36.64-39.63 56.85-5.77 10.36-10.9 21.26-13.62 32.85-2.88 12.24-3.07 24.91-2.9 37.42.33 23.85.88 47.7 1.32 71.55.05 2.83.1 5.66.16 8.48.05 2.68 4.23 2.69 4.18 0-.43-23.39-.88-46.78-1.3-70.18-.22-12.18-.67-24.44.85-36.56 1.51-12.04 5.59-23.4 11.05-34.19 10.35-20.44 23.69-39.48 38-57.32 14.27-17.79 29.82-34.52 45.79-50.78 8.08-8.22 16.27-16.32 24.49-24.4 7.95-7.81 15.74-16.12 25.05-22.35 2.32-1.55 4.74-2.95 7.25-4.19 2.4-1.19.28-4.79-2.12-3.61z"/><path d="m1052.7 867.31c10.29 21.67 17.36 44.66 24.63 67.47 7.6 23.84 15.21 47.68 22.81 71.52 4.29 13.47 8.59 26.93 12.88 40.4.81 2.55 4.85 1.46 4.03-1.11-7.67-24.06-15.35-48.12-23.02-72.18-7.5-23.52-14.68-47.18-22.7-70.53-4.39-12.79-9.23-25.44-15.03-37.67-1.14-2.43-4.75-.31-3.6 2.1z"/></g><path d="m1260.57 1104.77v6.96l-12.53 26.45-9.75 22.28-4.18 18.1v15.31l5.57 15.31 11.14 15.31 12.53 9.75 18.1 11.14 22.28 4.18 34.8 6.96 33.41 4.18 9.75 4.18 6.96 6.96 16.71 18.1 18.1 13.92s37.59 23.67 38.98 20.88 30.63 8.35 30.63 8.35l41.77 2.78 33.41 1.39 26.45-5.57 2.78-9.75 6.96-19.49v-5.57l-8.35-4.18-59.86-19.49-71-26.45-23.67-13.92-20.88-20.88-9.75-20.88-4.18-8.35-12.53-1.39-43.16-11.14-40.37-19.49-29.24-20.88-18.1-25.06z" fill="#005cff"/><path d="m1235.51 1200.83-5.56 11.14 1.39 15.31 6.96 11.14 13.92 13.92 25.06 19.49 26.45 15.31 37.59 18.1 43.16 18.1 20.88 12.53 13.92 12.53 19.49 18.1 26.46 23.67 25.05 13.92 38.99 6.96h30.62l38.99 6.96-6.97-11.14-2.78-19.49 2.78-37.59 1.89-17.91-17.2 5.38h-27.84l-38.98-2.78-45.47-10.02-28.32-12.26-30.63-22.27-25.06-26.45-19.49-4.18-40.37-5.57-45.94-12.53-15.32-9.74-15.31-15.32z" fill="#4c0bd9"/><circle cx="1554.33" cy="1392.95" fill="#a1ccff" r="9.75"/><circle cx="1525.09" cy="1387.38" fill="#a1ccff" r="9.75"/><circle cx="1497.25" cy="1383.21" fill="#a1ccff" r="9.75"/><circle cx="1469.4" cy="1370.68" fill="#a1ccff" r="9.75"/><circle cx="1431.81" cy="1335.87" fill="#a1ccff" r="9.75"/><path d="m1327.4 1035.16 107.2 68.22 164.28 109.98 66.82 43.16 51.51 34.8 34.81 22.28 19.49 15.31 8.35 11.14 11.14 13.92 2.78 16.71-2.78 16.7-9.75 11.14-13.92 9.74-44.55 12.53-51.51 4.18h-43.16l-22.27-5.57-8.99-4.63-6.33-17.64-1.39-25.06 4.18-26.45 3.53-21.41 9-23.14-5.22-6.19-40.03-13.73-91.19-34.38-30.63-16.71-16.7-16.7-13.87-28.91-36.25-7.29-41.37-16.85-33.38-19.24-23.25-21.64-11.98-24.41v-23.67l9.74-16.7 15.32-12.53 19.49-9.75z" fill="#a1ccff"/><path d="m1231.34 1174.38-34.81 27.84-5.57 9.75-1.39 8.35 2.79 5.57 8.35 1.39 9.74-1.39 15.32-12.53 5.57-5.57 5.07-7.63-2.29-28.57z" fill="#005cff"/><path d="m1300.95 1085.28 32.02 22.27 37.59 29.24 11.13 6.96 2.79-6.96-5.57-26.45-11.14-18.1-16.7-12.53-18.1-5.57-18.1 1.39-9.75 6.96z" fill="#d4eaff"/><path d="m1392.04 1327.88 3.58 17.74 6.96 25.06 11.13 23.66 8.36 8.36 18.1 12.53 29.23 1.39 32.02-5.57 9.75-2.79-19.1-3.85-25.81-13.44-24.01-21.36-29.61-27.18z" fill="#d4eaff"/><circle cx="1430.42" cy="1381.81" fill="#a1ccff" r="9.75"/><path d="m1408.26 1181.38c-4.62-2.65-10.84-2.34-15.98-3.15-5.77-.9-11.5-2.07-17.16-3.49-11.11-2.79-21.99-6.54-32.49-11.11-10.57-4.6-20.78-10-30.62-16.01-8.89-5.43-17.69-11.21-25.54-18.07-7.47-6.53-14.05-14.15-18.27-23.19-5-10.7-7.4-24.23-3.64-35.64 3.46-10.5 11.87-18.47 20.6-24.81 9.07-6.58 19.89-11.97 31.37-11.35 11.82.64 22.56 8.39 32.36 14.35 10.74 6.53 21.15 13.59 31.6 20.57 21.74 14.51 43.34 29.24 65.06 43.79 43.54 29.16 87.28 58.01 130.93 87 43.26 28.73 86.23 57.99 130 85.95 20.26 12.94 41.25 25.33 59.56 41.01 15.23 13.05 31.2 33.55 24.12 54.83-3.62 10.88-12.72 17.96-22.54 23.11-9.94 5.23-20.8 8.5-31.76 10.81-10.87 2.29-21.92 3.61-32.96 4.76-12.81 1.34-25.64 2.17-38.52 2.3-12.75.12-25.5-.37-38.2-1.42-10.48-.87-22.22-1.74-28.72-11.22-4.76-6.94-5.8-15.82-5.91-24.03-.11-8.15.82-16.25 1.63-24.35 1.21-12.09 2.57-24.22 5.6-36.01 1.49-5.8 3.37-11.52 5.83-16.98 1.98-4.4 4.95-8.94 1.23-13.32-3.29-3.88-9.13-5.63-13.7-7.47-5.49-2.2-11.11-4.08-16.77-5.82-11.54-3.54-23.24-6.56-34.72-10.32-24.59-8.05-48.68-17.38-72.44-27.61-10-4.3-19.2-9.55-27.64-16.48-8.19-6.72-15.2-14.79-20.56-23.93-2.4-4.08-4.1-8.09-5.5-12.59-1.21-3.94-2.76-7.68-6.25-10.11-2.21-1.54-4.3 2.08-2.11 3.61 3.81 2.65 4.35 8.22 5.82 12.27 1.74 4.8 4.53 9.34 7.37 13.56 5.91 8.78 13.27 16.43 21.7 22.81 4.37 3.31 9.01 6.66 13.83 9.27 5.03 2.72 10.4 4.83 15.64 7.09 12.03 5.18 24.17 10.08 36.43 14.68 12.35 4.63 24.8 9.02 37.38 12.99 11.91 3.76 24.06 6.75 35.92 10.68 5.88 1.95 11.71 4.11 17.31 6.75 2 .94 5.08 2.19 5.86 4.49.89 2.63-2.31 7.1-3.35 9.53-4.78 11.26-7.35 23.25-9.03 35.32-1.38 9.93-2.43 19.94-3.21 29.94-.67 8.68-.88 17.59 1.06 26.13 1.88 8.28 6.27 16 13.87 20.21 4.71 2.61 10.03 3.72 15.33 4.32 6.45.73 12.94 1.18 19.42 1.54 25.82 1.45 51.56.19 77.21-3 21.93-2.72 45.51-7 63.83-20.2 8.8-6.34 15.3-15.08 17.01-25.97 1.64-10.43-1.38-20.81-6.59-29.82-11.48-19.85-31.82-33.35-50.48-45.76-21.35-14.2-43.13-27.77-64.53-41.92-22.48-14.85-44.93-29.75-67.38-44.65-45.02-29.88-90.01-59.79-135.02-89.68-22.5-14.94-44.88-30.04-67.27-45.13-21.55-14.53-42.94-29.6-65.6-42.38-10.16-5.73-20.6-9.27-32.31-6.83-11 2.29-20.84 8.63-29.32 15.77-8.29 6.97-15.38 15.78-17.59 26.63-2.31 11.31.11 23.69 4.79 34.11 8.53 18.99 26.56 31.63 43.68 42.28 20.06 12.48 41.82 22.48 64.73 28.41 5.5 1.42 11.07 2.61 16.67 3.54 2.62.43 5.25.81 7.89 1.14 2.98.37 6.25.35 8.92 1.88 2.34 1.34 4.45-2.27 2.12-3.61z" fill="#3314a6"/><path d="m1259.47 1091.32c2.27 14.36-3.3 28.3-9.4 41-6.37 13.23-13.99 26.27-17.18 40.75-3.31 14.97-.42 30 8.1 42.75 8.99 13.46 22.35 23.12 37.17 29.28 17.04 7.09 35.46 9.79 53.63 12.23 9.95 1.34 19.9 2.65 29.84 3.98 4.77.63 9.73 1.02 14.27 2.68 4.03 1.47 7.17 4.3 9.96 7.47 2.85 3.23 5.42 6.69 8.28 9.91 2.7 3.05 5.54 5.97 8.5 8.76 6.05 5.71 12.61 10.89 19.5 15.54 13.95 9.41 29.37 16.62 45.37 21.8 18.61 6.03 38.03 9.34 57.51 10.86 9.76.76 19.55 1.07 29.34 1.03 9.27-.04 18.68-.13 27.8-1.98 4.36-.88 8.56-2.24 12.6-4.11 2.44-1.13.32-4.73-2.11-3.61-8.44 3.91-17.82 4.96-27.01 5.31-9.44.36-18.91.29-28.35-.1-19.33-.79-38.64-3.19-57.37-8.12-32.29-8.5-63.17-24.99-84.92-50.76-5.43-6.44-10.22-13.45-18.59-16.23-4.31-1.43-8.9-1.84-13.38-2.44-4.91-.65-9.82-1.31-14.73-1.96-18.46-2.46-37.21-4.35-55.17-9.48-16.02-4.57-31.19-12.1-42.54-24.54-10.2-11.18-16.27-25.6-14.72-40.87 2.92-28.66 26.74-50.83 28.23-79.89.18-3.48-.06-6.93-.6-10.36-.42-2.66-4.45-1.53-4.03 1.1z" fill="#3314a6"/><path d="m1233.69 1200.79c-9.96 10.4-7.01 26.57.85 37.22 4.47 6.07 10.16 11.01 16 15.72 6.36 5.13 12.89 10.05 19.59 14.72 13.28 9.28 27.21 17.64 41.66 24.98 14.44 7.34 29.45 13.34 44.41 19.5 14.62 6.03 29.21 12.42 42.51 21.07 12.23 7.96 22.73 18.06 33.02 28.33 10.01 10 19.94 20.17 31.33 28.64 11.59 8.63 24.56 14.58 38.67 17.7 29.86 6.61 60.95 2.65 90.78 9.32 3.56.8 7.07 1.76 10.53 2.89 2.56.84 3.66-3.19 1.11-4.03-28.57-9.34-59.18-6.18-88.61-10-14.26-1.85-28.21-5.62-40.65-12.98-11.93-7.06-22.14-16.56-31.95-26.25-9.87-9.75-19.44-19.86-30.25-28.59-11.93-9.63-25.35-16.98-39.29-23.26-14.28-6.43-28.98-11.87-43.28-18.23-14.6-6.5-28.75-14-42.31-22.44-13.38-8.32-26.38-17.49-38.39-27.71-10.21-8.69-20.88-20.96-17.22-35.45.78-3.1 2.26-5.9 4.47-8.21 1.84-1.93-1.11-4.88-2.98-2.94z" fill="#3314a6"/><path d="m1234.92 1167.61c-7.95 7.52-16.97 13.74-25.59 20.45-8 6.23-16.4 13.02-20.26 22.71-1.47 3.69-2.21 8.16-.63 11.95 1.21 2.9 3.71 4.8 6.66 5.73 3.03.95 6.32.88 9.43.46 2.88-.39 6.02-1.04 8.56-2.51 3.49-2.03 6.29-5.26 9.16-8.05 1.51-1.47 3.04-2.96 4.74-4.22 1.15-.85 2.55-1.85 4.02-1.91 2.68-.13 2.69-4.3 0-4.18-3.16.15-5.81 2.1-8.15 4.07-2.78 2.33-5.24 5.01-7.89 7.48-2.08 1.94-4.04 3.47-6.78 4.28-2.76.82-5.64 1.26-8.52 1.13-2.28-.1-4.92-.63-6.5-2.44-2.21-2.53-1.51-6.5-.55-9.39 3-9.05 11.24-15.52 18.44-21.2 8.98-7.09 18.48-13.53 26.81-21.41 1.96-1.85-1-4.8-2.95-2.95z" fill="#3314a6"/><path d="m1561.28 1391.11c.62 3.06-.75 6.33-3.45 7.99-2.76 1.7-6.34 1.51-8.79-.46-2.62-2.09-3.53-5.53-2.49-8.6.98-2.91 3.9-5.03 7.03-5.1 3.7-.07 6.85 2.48 7.7 6.17.6 2.62 4.63 1.51 4.03-1.11-1.09-4.74-5.07-8.43-9.89-9.09-4.88-.67-9.89 1.81-12.14 6.24-2.26 4.46-1.53 9.91 1.89 13.58 3.36 3.6 8.76 4.65 13.25 2.75 5.28-2.24 8.01-7.94 6.89-13.48-.22-1.11-1.54-1.74-2.57-1.46-1.15.31-1.68 1.46-1.46 2.57z" fill="#3314a6"/><path d="m1533.08 1385.79c.62 3.06-.75 6.33-3.45 7.99-2.76 1.7-6.34 1.51-8.79-.46-2.62-2.09-3.53-5.53-2.49-8.6.98-2.91 3.9-5.03 7.03-5.1 3.7-.06 6.85 2.49 7.7 6.17.6 2.62 4.63 1.51 4.03-1.11-1.09-4.74-5.07-8.43-9.89-9.09-4.88-.67-9.89 1.81-12.14 6.24-2.26 4.46-1.53 9.91 1.89 13.58 3.36 3.6 8.76 4.65 13.25 2.75 5.28-2.24 8.01-7.94 6.89-13.48-.22-1.11-1.54-1.74-2.57-1.46-1.16.32-1.69 1.46-1.46 2.57z" fill="#3314a6"/><path d="m1505.17 1381.84c.62 3.06-.75 6.33-3.45 7.99-2.76 1.7-6.34 1.51-8.79-.46-2.62-2.09-3.53-5.53-2.49-8.6.98-2.91 3.9-5.03 7.03-5.1 3.7-.06 6.85 2.49 7.7 6.17.6 2.62 4.63 1.51 4.03-1.11-1.09-4.74-5.07-8.43-9.89-9.09-4.88-.67-9.89 1.81-12.14 6.24-2.26 4.46-1.53 9.91 1.89 13.58 3.36 3.6 8.76 4.65 13.25 2.75 5.28-2.24 8.01-7.94 6.89-13.48-.22-1.11-1.54-1.74-2.57-1.46-1.16.32-1.69 1.46-1.46 2.57z" fill="#3314a6"/><path d="m1476.85 1369.43c.62 3.06-.75 6.33-3.45 7.99-2.76 1.7-6.34 1.51-8.79-.46-2.62-2.09-3.53-5.53-2.49-8.6.98-2.91 3.9-5.03 7.03-5.1 3.71-.06 6.86 2.49 7.7 6.17.6 2.62 4.63 1.51 4.03-1.11-1.09-4.74-5.07-8.43-9.89-9.09-4.88-.67-9.89 1.81-12.14 6.24-2.26 4.46-1.53 9.91 1.89 13.58 3.36 3.6 8.76 4.65 13.25 2.75 5.28-2.24 8.01-7.94 6.89-13.48-.22-1.11-1.54-1.74-2.57-1.46-1.15.32-1.68 1.47-1.46 2.57z" fill="#3314a6"/><path d="m1439.47 1334.77c.62 3.06-.75 6.33-3.45 7.99-2.76 1.7-6.34 1.51-8.79-.46-2.62-2.09-3.53-5.53-2.49-8.6.98-2.91 3.9-5.03 7.03-5.1 3.7-.06 6.85 2.48 7.7 6.17.6 2.62 4.63 1.51 4.03-1.11-1.09-4.74-5.07-8.43-9.89-9.09-4.88-.67-9.89 1.81-12.14 6.24-2.26 4.46-1.53 9.91 1.89 13.58 3.36 3.6 8.76 4.65 13.25 2.75 5.28-2.24 8.01-7.94 6.89-13.48-.22-1.11-1.54-1.74-2.57-1.46-1.15.32-1.68 1.46-1.46 2.57z" fill="#3314a6"/><path d="m1437.98 1380.67c.62 3.06-.75 6.33-3.45 7.99-2.76 1.7-6.34 1.51-8.79-.46-2.62-2.09-3.53-5.53-2.49-8.6.98-2.91 3.9-5.03 7.03-5.1 3.7-.07 6.85 2.48 7.7 6.17.6 2.62 4.63 1.51 4.03-1.11-1.09-4.74-5.07-8.43-9.89-9.09-4.88-.67-9.89 1.81-12.14 6.24-2.26 4.46-1.53 9.91 1.89 13.58 3.36 3.6 8.76 4.65 13.25 2.75 5.28-2.24 8.01-7.94 6.89-13.48-.22-1.11-1.54-1.74-2.57-1.46-1.16.31-1.69 1.46-1.46 2.57z" fill="#3314a6"/><path d="m1346.74 1114.32c-8.24-6.21-16.66-12.18-25.26-17.9-4.03-2.68-8.1-5.28-12.25-7.77-1.96-1.18-4.03-2.29-5.89-3.62.16.11-.14.29.03.09.15-.17.46-.61.78-.91 1.86-1.77 4.46-2.91 6.77-3.95 1.91-.86 3.87-1.63 5.86-2.26 7.79-2.45 16.19-2.21 23.99.03 16.05 4.6 30.04 17.89 35.63 33.64 1.24 3.48 2.16 7.1 3.05 10.68 1.22 4.9 2.41 9.95 2.6 15.01.04.94.01 2.36-.09 2.94-.07.39-.19.75-.29 1.13.06-.23-.14.3-.14.21 0 .1.35-.15.05-.04-.27.1.21-.14.27-.06-.52-.74-2.06-1.41-2.82-1.92-2.28-1.55-4.51-3.18-6.7-4.86-8.68-6.63-16.88-13.85-25.59-20.44-2.14-1.62-4.23 2-2.11 3.61 8.54 6.45 16.59 13.52 25.09 20.04 2.02 1.55 4.07 3.07 6.16 4.52 1.7 1.18 3.91 3.3 6.12 3.2 2.07-.09 3.37-1.83 3.86-3.69 1.29-4.87-.18-10.73-1.18-15.52-1.03-4.93-2.3-9.84-3.82-14.64-5.16-16.21-18.55-30.02-34.28-36.24-8.53-3.37-17.98-4.45-26.99-2.63-5.65 1.14-11.76 3.47-16.49 6.78-2.2 1.54-5.05 4.19-3.53 7.16.56 1.09 1.6 1.69 2.6 2.32 1.28.8 2.56 1.59 3.85 2.37 2.59 1.56 5.19 3.1 7.73 4.74 10.56 6.81 20.85 14.03 30.89 21.58 2.14 1.63 4.22-2 2.1-3.6z" fill="#3314a6"/><path d="m1388.21 1327.35c5.63 10.43 5.95 22.8 9.39 33.99 3.54 11.5 8.24 22.93 14.81 33.06 5.66 8.73 13.2 16.28 23.13 19.9 10.99 4 23.21 3.44 34.68 2.65 14.62-1.01 29.17-2.77 43.41-6.34 2.61-.65 1.5-4.68-1.11-4.03-12.44 3.12-25.15 4.92-37.93 5.88-11.16.84-22.82 1.87-33.8-.92-10.21-2.59-18.06-9.32-23.89-17.91-6.53-9.61-11.17-20.56-14.7-31.59-1.94-6.08-3.19-12.25-4.44-18.5-1.27-6.33-2.86-12.58-5.94-18.29-1.28-2.37-4.89-.26-3.61 2.1z" fill="#3314a6"/></svg>