<svg width="38" height="38" viewBox="0 0 38 38" fill="none" xmlns="http://www.w3.org/2000/svg">
<path d="M19 37C28.9411 37 37 28.9411 37 19C37 9.05887 28.9411 1 19 1C9.05887 1 1 9.05887 1 19C1 28.9411 9.05887 37 19 37Z" fill="#FFCCED" stroke="#1E00FC" stroke-width="2" stroke-linecap="round" stroke-linejoin="round"/>
<path d="M11 21C11 23.1217 11.8429 25.1566 13.3431 26.6569C14.8434 28.1571 16.8783 29 19 29C21.1217 29 23.1566 28.1571 24.6569 26.6569C26.1571 25.1566 27 23.1217 27 21H11ZM27 21H11H27Z" fill="#FFCCED"/>
<path d="M13 13H13.02M25 13H25.02M11 21C11 23.1217 11.8429 25.1566 13.3431 26.6569C14.8434 28.1571 16.8783 29 19 29C21.1217 29 23.1566 28.1571 24.6569 26.6569C26.1571 25.1566 27 23.1217 27 21H11Z" stroke="#1E00FC" stroke-width="2" stroke-linecap="round" stroke-linejoin="round"/>
</svg>
