<svg width="39" height="39" viewBox="0 0 39 39" fill="none" xmlns="http://www.w3.org/2000/svg">
<path d="M19.5 38C29.7173 38 38 29.7173 38 19.5C38 9.28273 29.7173 1 19.5 1C9.28273 1 1 9.28273 1 19.5C1 29.7173 9.28273 38 19.5 38Z" fill="#FC00A4" stroke="#1E00FC" stroke-width="2" stroke-linecap="round" stroke-linejoin="round"/>
<path d="M14.3613 25.6666C15.0311 26.3502 15.8307 26.8934 16.7131 27.2642C17.5955 27.635 18.543 27.826 19.5002 27.826C20.4573 27.826 21.4048 27.635 22.2872 27.2642C23.1696 26.8934 23.9692 26.3502 24.6391 25.6666" fill="#FC00A4"/>
<path d="M13.3335 15.3888H13.3541M25.6668 15.3888H25.6874M14.3613 25.6666C15.0311 26.3502 15.8307 26.8934 16.7131 27.2642C17.5955 27.635 18.543 27.826 19.5002 27.826C20.4573 27.826 21.4048 27.635 22.2872 27.2642C23.1696 26.8934 23.9692 26.3502 24.6391 25.6666" stroke="#1E00FC" stroke-width="2" stroke-linecap="round" stroke-linejoin="round"/>
</svg>
