<svg width="15" height="15" viewBox="0 0 15 15" fill="none" xmlns="http://www.w3.org/2000/svg">
<g clip-path="url(#clip0_1423_11980)">
<path d="M15 7.66634C15.0091 7.15074 14.9548 6.63594 14.8383 6.13306H7.65308V8.91634H11.8707C11.7908 9.40436 11.611 9.8715 11.3421 10.2897C11.0733 10.7078 10.7209 11.0684 10.3061 11.3496L10.2914 11.4429L12.5634 13.1676L12.7207 13.1831C14.1662 11.8747 14.9997 9.94963 14.9997 7.66634" fill="#4285F4"/>
<path d="M7.65302 15C9.71927 15 11.454 14.3333 12.7211 13.1833L10.3061 11.3498C9.65987 11.7916 8.79253 12.1 7.65302 12.1C6.68525 12.0944 5.74383 11.7904 4.96234 11.2309C4.18084 10.6715 3.59895 9.88508 3.29923 8.98328L3.20954 8.99077L0.847161 10.7824L0.816284 10.8666C1.45253 12.1092 2.42896 13.1539 3.63638 13.8839C4.8438 14.6139 6.23462 15.0003 7.65331 15" fill="#34A853"/>
<path d="M3.29924 8.98326C3.13185 8.50585 3.04547 8.00477 3.04355 7.49997C3.04663 6.99599 3.12982 6.49556 3.29013 6.01669L3.28586 5.91726L0.89452 4.0968L0.816299 4.13326C0.279572 5.17757 0 6.3306 0 7.4999C0 8.6692 0.279572 9.82223 0.816299 10.8665L3.29924 8.98326Z" fill="#FBBC05"/>
<path d="M7.65307 2.90003C8.74969 2.88335 9.81028 3.28358 10.6123 4.01675L12.7722 1.95003C11.3869 0.676447 9.55239 -0.0223531 7.65307 3.34471e-05C6.23439 -0.000297341 4.84358 0.38611 3.63616 1.11605C2.42874 1.84599 1.45231 2.89068 0.81604 4.13332L3.29075 6.01675C3.59343 5.1151 4.17724 4.32929 4.95989 3.77012C5.74254 3.21095 6.68454 2.90662 7.65307 2.90003Z" fill="#EB4335"/>
</g>
<defs>
<clipPath id="clip0_1423_11980">
<rect width="15" height="15" fill="white"/>
</clipPath>
</defs>
</svg>
