<svg width="72" height="72" viewBox="0 0 72 72" fill="none" xmlns="http://www.w3.org/2000/svg">
<path d="M17.0719 40.6837C18.9331 39.8679 20.0743 37.9729 19.9425 35.9454C19.4954 29.0485 23.2545 23.0927 29.2305 20.474C35.1317 17.8885 42.0401 19.1694 46.8036 24.1727C48.2054 25.6451 50.3733 26.0922 52.2353 25.2764L52.2367 25.2757C55.3529 23.9099 56.1377 19.8224 53.7177 17.4306C46.5257 10.3213 35.8675 8.51843 25.9049 12.8831C15.9422 17.2484 9.98711 26.3305 10.3118 36.4487C10.4205 39.8492 13.9557 42.0488 17.0719 40.6837Z" fill="#1E00FC"/>
<path d="M54.9202 31.6865C53.0849 32.4907 51.9502 34.3469 52.0445 36.3478C52.3599 43.0747 48.6605 48.9629 42.8329 51.516C36.9303 54.1023 30.0744 52.8379 25.3383 48.0463C23.9307 46.6222 21.798 46.1988 19.9642 47.0031L19.9548 47.0074C16.8005 48.3898 16.0668 52.5435 18.5652 54.913C25.7616 61.7393 36.3262 63.4155 46.1585 59.107C55.9952 54.7971 61.8711 45.9115 61.6976 36C61.6371 32.5627 58.0925 30.2962 54.9432 31.6757L54.9202 31.6865Z" fill="#FC00A4"/>
</svg>
