<svg width="84" height="83" viewBox="0 0 84 83" fill="none" xmlns="http://www.w3.org/2000/svg">
<path d="M11.5036 70.0352C26.6575 85.8767 51.8758 87.485 68.9964 73.2901C86.117 59.0952 88.8932 34.2764 75.7359 16.7795L66.0594 24.8024C74.7587 37.0114 72.6853 53.9796 60.8975 63.753C49.1097 73.5265 31.8378 72.5976 21.1801 62.0123L11.5036 70.0352Z" fill="#FF00C7"/>
<path d="M8.26405 66.2205C-4.89322 48.7236 -2.11705 23.9048 15.0036 9.70991C32.1242 -4.48498 57.3425 -2.87668 72.4964 12.9648L62.8199 20.9877C52.1622 10.4024 34.8904 9.47352 23.1025 19.247C11.3147 29.0204 9.24127 45.9886 17.9406 58.1976L8.26405 66.2205Z" fill="white"/>
</svg>
