<svg width="328" height="216" viewBox="0 0 328 216" fill="none" xmlns="http://www.w3.org/2000/svg">
<rect width="328" height="216" rx="32" fill="#E9E6FF"/>
<path d="M74.1152 102.5L109.333 69L141.923 129.5L175.038 163L209.731 102.5L242.846 39.5L277.538 75" stroke="#1E00FC" stroke-width="2"/>
<path d="M51.5127 21V181H303.82" stroke="#1E00FC"/>
<path d="M74.6113 200.192C73.9286 200.192 73.246 200.064 72.5633 199.808C71.8913 199.552 71.2886 199.179 70.7553 198.688L72.0993 197.072C72.4726 197.392 72.8886 197.653 73.3473 197.856C73.806 198.059 74.2486 198.16 74.6753 198.16C75.166 198.16 75.5286 198.069 75.7633 197.888C76.0086 197.707 76.1313 197.461 76.1313 197.152C76.1313 196.821 75.9926 196.581 75.7153 196.432C75.4486 196.272 75.086 196.096 74.6273 195.904L73.2673 195.328C72.9153 195.179 72.5793 194.981 72.2593 194.736C71.9393 194.48 71.678 194.165 71.4753 193.792C71.2726 193.419 71.1713 192.981 71.1713 192.48C71.1713 191.904 71.326 191.381 71.6353 190.912C71.9553 190.443 72.3926 190.069 72.9473 189.792C73.5126 189.515 74.158 189.376 74.8833 189.376C75.4806 189.376 76.078 189.493 76.6753 189.728C77.2726 189.963 77.7953 190.304 78.2433 190.752L77.0433 192.24C76.702 191.973 76.3606 191.771 76.0193 191.632C75.678 191.483 75.2993 191.408 74.8833 191.408C74.478 191.408 74.1526 191.493 73.9073 191.664C73.6726 191.824 73.5553 192.053 73.5553 192.352C73.5553 192.672 73.7046 192.912 74.0033 193.072C74.3126 193.232 74.6913 193.403 75.1393 193.584L76.4833 194.128C77.1126 194.384 77.614 194.736 77.9873 195.184C78.3606 195.632 78.5473 196.224 78.5473 196.96C78.5473 197.536 78.3926 198.069 78.0833 198.56C77.774 199.051 77.326 199.445 76.7393 199.744C76.1526 200.043 75.4433 200.192 74.6113 200.192Z" fill="#1E00FC"/>
<path d="M107.1 200V191.552H104.236V189.568H112.332V191.552H109.468V200H107.1Z" fill="#1E00FC"/>
<path d="M141.926 198.272C142.641 198.272 143.206 197.963 143.622 197.344C144.038 196.715 144.246 195.845 144.246 194.736C144.246 193.691 144.038 192.875 143.622 192.288C143.206 191.701 142.641 191.408 141.926 191.408C141.211 191.408 140.646 191.701 140.23 192.288C139.814 192.875 139.606 193.691 139.606 194.736C139.606 195.845 139.814 196.715 140.23 197.344C140.646 197.963 141.211 198.272 141.926 198.272ZM145.366 202.912C144.267 202.912 143.334 202.64 142.566 202.096C141.798 201.563 141.227 200.891 140.854 200.08C139.745 199.845 138.854 199.264 138.182 198.336C137.521 197.408 137.19 196.208 137.19 194.736C137.19 193.595 137.387 192.629 137.782 191.84C138.187 191.04 138.742 190.432 139.446 190.016C140.161 189.589 140.987 189.376 141.926 189.376C142.865 189.376 143.686 189.589 144.39 190.016C145.105 190.432 145.659 191.04 146.054 191.84C146.459 192.64 146.662 193.605 146.662 194.736C146.662 196.133 146.363 197.291 145.766 198.208C145.169 199.115 144.363 199.712 143.35 200C143.595 200.363 143.926 200.624 144.342 200.784C144.769 200.944 145.201 201.024 145.638 201.024C145.862 201.024 146.07 201.003 146.262 200.96C146.465 200.928 146.641 200.891 146.79 200.848L147.206 202.56C147.014 202.656 146.758 202.736 146.438 202.8C146.129 202.875 145.771 202.912 145.366 202.912Z" fill="#1E00FC"/>
<path d="M175.567 198.272C176.281 198.272 176.847 197.963 177.263 197.344C177.679 196.715 177.887 195.845 177.887 194.736C177.887 193.691 177.679 192.875 177.263 192.288C176.847 191.701 176.281 191.408 175.567 191.408C174.852 191.408 174.287 191.701 173.871 192.288C173.455 192.875 173.247 193.691 173.247 194.736C173.247 195.845 173.455 196.715 173.871 197.344C174.287 197.963 174.852 198.272 175.567 198.272ZM179.007 202.912C177.908 202.912 176.975 202.64 176.207 202.096C175.439 201.563 174.868 200.891 174.495 200.08C173.385 199.845 172.495 199.264 171.823 198.336C171.161 197.408 170.831 196.208 170.831 194.736C170.831 193.595 171.028 192.629 171.423 191.84C171.828 191.04 172.383 190.432 173.087 190.016C173.801 189.589 174.628 189.376 175.567 189.376C176.505 189.376 177.327 189.589 178.031 190.016C178.745 190.432 179.3 191.04 179.695 191.84C180.1 192.64 180.303 193.605 180.303 194.736C180.303 196.133 180.004 197.291 179.407 198.208C178.809 199.115 178.004 199.712 176.991 200C177.236 200.363 177.567 200.624 177.983 200.784C178.409 200.944 178.841 201.024 179.279 201.024C179.503 201.024 179.711 201.003 179.903 200.96C180.105 200.928 180.281 200.891 180.431 200.848L180.847 202.56C180.655 202.656 180.399 202.736 180.079 202.8C179.769 202.875 179.412 202.912 179.007 202.912Z" fill="#1E00FC"/>
<path d="M209.175 200.192C208.493 200.192 207.81 200.064 207.127 199.808C206.455 199.552 205.853 199.179 205.319 198.688L206.663 197.072C207.037 197.392 207.453 197.653 207.911 197.856C208.37 198.059 208.813 198.16 209.239 198.16C209.73 198.16 210.093 198.069 210.327 197.888C210.573 197.707 210.695 197.461 210.695 197.152C210.695 196.821 210.557 196.581 210.279 196.432C210.013 196.272 209.65 196.096 209.191 195.904L207.831 195.328C207.479 195.179 207.143 194.981 206.823 194.736C206.503 194.48 206.242 194.165 206.039 193.792C205.837 193.419 205.735 192.981 205.735 192.48C205.735 191.904 205.89 191.381 206.199 190.912C206.519 190.443 206.957 190.069 207.511 189.792C208.077 189.515 208.722 189.376 209.447 189.376C210.045 189.376 210.642 189.493 211.239 189.728C211.837 189.963 212.359 190.304 212.807 190.752L211.607 192.24C211.266 191.973 210.925 191.771 210.583 191.632C210.242 191.483 209.863 191.408 209.447 191.408C209.042 191.408 208.717 191.493 208.471 191.664C208.237 191.824 208.119 192.053 208.119 192.352C208.119 192.672 208.269 192.912 208.567 193.072C208.877 193.232 209.255 193.403 209.703 193.584L211.047 194.128C211.677 194.384 212.178 194.736 212.551 195.184C212.925 195.632 213.111 196.224 213.111 196.96C213.111 197.536 212.957 198.069 212.647 198.56C212.338 199.051 211.89 199.445 211.303 199.744C210.717 200.043 210.007 200.192 209.175 200.192Z" fill="#1E00FC"/>
<path d="M242.816 200.192C242.134 200.192 241.451 200.064 240.768 199.808C240.096 199.552 239.494 199.179 238.96 198.688L240.304 197.072C240.678 197.392 241.094 197.653 241.552 197.856C242.011 198.059 242.454 198.16 242.88 198.16C243.371 198.16 243.734 198.069 243.968 197.888C244.214 197.707 244.336 197.461 244.336 197.152C244.336 196.821 244.198 196.581 243.92 196.432C243.654 196.272 243.291 196.096 242.832 195.904L241.472 195.328C241.12 195.179 240.784 194.981 240.464 194.736C240.144 194.48 239.883 194.165 239.68 193.792C239.478 193.419 239.376 192.981 239.376 192.48C239.376 191.904 239.531 191.381 239.84 190.912C240.16 190.443 240.598 190.069 241.152 189.792C241.718 189.515 242.363 189.376 243.088 189.376C243.686 189.376 244.283 189.493 244.88 189.728C245.478 189.963 246 190.304 246.448 190.752L245.248 192.24C244.907 191.973 244.566 191.771 244.224 191.632C243.883 191.483 243.504 191.408 243.088 191.408C242.683 191.408 242.358 191.493 242.112 191.664C241.878 191.824 241.76 192.053 241.76 192.352C241.76 192.672 241.91 192.912 242.208 193.072C242.518 193.232 242.896 193.403 243.344 193.584L244.688 194.128C245.318 194.384 245.819 194.736 246.192 195.184C246.566 195.632 246.752 196.224 246.752 196.96C246.752 197.536 246.598 198.069 246.288 198.56C245.979 199.051 245.531 199.445 244.944 199.744C244.358 200.043 243.648 200.192 242.816 200.192Z" fill="#1E00FC"/>
<path d="M272.641 200V189.568H275.585C276.651 189.568 277.574 189.749 278.353 190.112C279.131 190.475 279.734 191.04 280.161 191.808C280.598 192.565 280.817 193.541 280.817 194.736C280.817 195.931 280.603 196.917 280.177 197.696C279.75 198.475 279.153 199.056 278.385 199.44C277.627 199.813 276.737 200 275.713 200H272.641ZM274.993 198.096H275.441C276.038 198.096 276.555 197.989 276.993 197.776C277.441 197.563 277.787 197.211 278.033 196.72C278.278 196.229 278.401 195.568 278.401 194.736C278.401 193.904 278.278 193.253 278.033 192.784C277.787 192.304 277.441 191.968 276.993 191.776C276.555 191.573 276.038 191.472 275.441 191.472H274.993V198.096Z" fill="#1E00FC"/>
<path d="M33.8164 109C38.5581 109 42.4019 105.418 42.4019 101C42.4019 96.5817 38.5581 93 33.8164 93C29.0748 93 25.231 96.5817 25.231 101C25.231 105.418 29.0748 109 33.8164 109Z" fill="#E8E7E3" stroke="#1E00FC" stroke-width="1.25091" stroke-linecap="round" stroke-linejoin="round"/>
<path d="M30.9546 103.667H36.6782M30.9546 99.2222H30.9641H30.9546ZM36.6782 99.2222H36.6878H36.6782Z" stroke="#1E00FC" stroke-width="1.25091" stroke-linecap="round" stroke-linejoin="round"/>
<path d="M74.6412 109C79.2861 109 83.0515 105.418 83.0515 101C83.0515 96.5817 79.2861 93 74.6412 93C69.9964 93 66.231 96.5817 66.231 101C66.231 105.418 69.9964 109 74.6412 109Z" fill="#FFCCED" stroke="#1E00FC" stroke-width="1.25" stroke-linecap="round" stroke-linejoin="round"/>
<path d="M71.8374 103.667H77.4442M71.8374 99.2222H71.8467H71.8374ZM77.4442 99.2222H77.4536H77.4442Z" stroke="#1E00FC" stroke-width="1.25" stroke-linecap="round" stroke-linejoin="round"/>
<path d="M209.205 109C213.85 109 217.615 105.418 217.615 101C217.615 96.5817 213.85 93 209.205 93C204.56 93 200.795 96.5817 200.795 101C200.795 105.418 204.56 109 209.205 109Z" fill="#FFCCED" stroke="#1E00FC" stroke-width="1.25" stroke-linecap="round" stroke-linejoin="round"/>
<path d="M206.401 103.667H212.008M206.401 99.2222H206.411H206.401ZM212.008 99.2222H212.018H212.008Z" stroke="#1E00FC" stroke-width="1.25" stroke-linecap="round" stroke-linejoin="round"/>
<path d="M33.6412 48C38.2861 48 42.0515 44.4183 42.0515 40C42.0515 35.5817 38.2861 32 33.6412 32C28.9964 32 25.231 35.5817 25.231 40C25.231 44.4183 28.9964 48 33.6412 48Z" fill="#E8E7E3" stroke="#1E00FC" stroke-width="1.25091" stroke-linecap="round" stroke-linejoin="round"/>
<path d="M29.9033 40.8891C29.9033 41.832 30.2971 42.7364 30.9981 43.4032C31.6991 44.07 32.6499 44.4446 33.6412 44.4446C34.6326 44.4446 35.5833 44.07 36.2843 43.4032C36.9853 42.7364 37.3791 41.832 37.3791 40.8891H29.9033ZM37.3791 40.8891H29.9033H37.3791Z" fill="#E8E7E3"/>
<path d="M30.8378 37.3335H30.8471M36.4446 37.3335H36.454M29.9033 40.8891C29.9033 41.832 30.2971 42.7364 30.9981 43.4032C31.6991 44.07 32.6499 44.4446 33.6412 44.4446C34.6326 44.4446 35.5833 44.07 36.2843 43.4032C36.9853 42.7364 37.3791 41.832 37.3791 40.8891H29.9033Z" stroke="#1E00FC" stroke-width="1.25091" stroke-linecap="round" stroke-linejoin="round"/>
<path d="M242.846 48C247.491 48 251.257 44.4183 251.257 40C251.257 35.5817 247.491 32 242.846 32C238.201 32 234.436 35.5817 234.436 40C234.436 44.4183 238.201 48 242.846 48Z" fill="#FFCCED" stroke="#1E00FC" stroke-width="1.25091" stroke-linecap="round" stroke-linejoin="round"/>
<path d="M239.108 40.8891C239.108 41.832 239.502 42.7364 240.203 43.4032C240.904 44.07 241.855 44.4446 242.846 44.4446C243.838 44.4446 244.788 44.07 245.489 43.4032C246.19 42.7364 246.584 41.832 246.584 40.8891H239.108ZM246.584 40.8891H239.108H246.584Z" fill="#FFCCED"/>
<path d="M240.043 37.3335H240.052M245.65 37.3335H245.659M239.108 40.8891C239.108 41.832 239.502 42.7364 240.203 43.4032C240.904 44.07 241.855 44.4446 242.846 44.4446C243.838 44.4446 244.788 44.07 245.489 43.4032C246.19 42.7364 246.584 41.832 246.584 40.8891H239.108Z" stroke="#1E00FC" stroke-width="1.25091" stroke-linecap="round" stroke-linejoin="round"/>
<path d="M33.6412 167C38.2861 167 42.0515 163.418 42.0515 159C42.0515 154.582 38.2861 151 33.6412 151C28.9964 151 25.231 154.582 25.231 159C25.231 163.418 28.9964 167 33.6412 167Z" fill="#E8E7E3" stroke="#1E00FC" stroke-width="1.25091" stroke-linecap="round" stroke-linejoin="round"/>
<path d="M31.3054 161.667C31.6099 161.962 31.9734 162.197 32.3746 162.358C32.7757 162.518 33.2065 162.6 33.6416 162.6C34.0767 162.6 34.5075 162.518 34.9086 162.358C35.3098 162.197 35.6733 161.962 35.9778 161.667" fill="#FF66CA"/>
<path d="M28.9692 155.889L31.7727 158.556M28.9692 158.556L31.7727 155.889M35.5106 155.889L38.314 158.556M35.5106 158.556L38.314 155.889M31.3054 161.667C31.6099 161.962 31.9734 162.197 32.3746 162.358C32.7757 162.518 33.2065 162.6 33.6416 162.6C34.0767 162.6 34.5075 162.518 34.9086 162.358C35.3098 162.197 35.6733 161.962 35.9778 161.667" stroke="#1E00FC" stroke-width="1.25091" stroke-linecap="round" stroke-linejoin="round"/>
<path d="M175.564 167C180.209 167 183.974 163.418 183.974 159C183.974 154.582 180.209 151 175.564 151C170.919 151 167.154 154.582 167.154 159C167.154 163.418 170.919 167 175.564 167Z" fill="#FFCCED" stroke="#1E00FC" stroke-width="1.25091" stroke-linecap="round" stroke-linejoin="round"/>
<path d="M173.228 161.667C173.533 161.962 173.896 162.197 174.297 162.358C174.699 162.518 175.129 162.6 175.564 162.6C176 162.6 176.43 162.518 176.831 162.358C177.233 162.197 177.596 161.962 177.901 161.667" fill="#FFCCED"/>
<path d="M170.892 155.889L173.696 158.556M170.892 158.556L173.696 155.889M177.433 155.889L180.237 158.556M177.433 158.556L180.237 155.889M173.228 161.667C173.533 161.962 173.896 162.197 174.297 162.358C174.699 162.518 175.129 162.6 175.564 162.6C176 162.6 176.43 162.518 176.831 162.358C177.233 162.197 177.596 161.962 177.901 161.667" stroke="#1E00FC" stroke-width="1.25091" stroke-linecap="round" stroke-linejoin="round"/>
<path d="M33.6412 137C38.2861 137 42.0515 133.418 42.0515 129C42.0515 124.582 38.2861 121 33.6412 121C28.9964 121 25.231 124.582 25.231 129C25.231 133.418 28.9964 137 33.6412 137Z" fill="#E8E7E3" stroke="#1E00FC" stroke-width="1.25091" stroke-linecap="round" stroke-linejoin="round"/>
<path d="M31.3051 131.889C31.6097 131.593 31.9731 131.358 32.3743 131.198C32.7754 131.038 33.2062 130.955 33.6413 130.955C34.0764 130.955 34.5072 131.038 34.9083 131.198C35.3095 131.358 35.673 131.593 35.9775 131.889M30.8379 127.222H30.8472H30.8379ZM36.4447 127.222H36.4541H36.4447Z" stroke="#1E00FC" stroke-width="1.25091" stroke-linecap="round" stroke-linejoin="round"/>
<path d="M141.923 137C146.568 137 150.333 133.418 150.333 129C150.333 124.582 146.568 121 141.923 121C137.278 121 133.513 124.582 133.513 129C133.513 133.418 137.278 137 141.923 137Z" fill="#FFCCED" stroke="#1E00FC" stroke-width="1.25091" stroke-linecap="round" stroke-linejoin="round"/>
<path d="M139.587 131.889C139.891 131.593 140.255 131.358 140.656 131.198C141.057 131.038 141.488 130.955 141.923 130.955C142.358 130.955 142.789 131.038 143.19 131.198C143.591 131.358 143.955 131.593 144.259 131.889M139.12 127.222H139.129H139.12ZM144.726 127.222H144.736H144.726Z" stroke="#1E00FC" stroke-width="1.25091" stroke-linecap="round" stroke-linejoin="round"/>
<path d="M33.6412 79C38.2861 79 42.0515 75.4183 42.0515 71C42.0515 66.5817 38.2861 63 33.6412 63C28.9964 63 25.231 66.5817 25.231 71C25.231 75.4183 28.9964 79 33.6412 79Z" fill="#E8E7E3" stroke="#1E00FC" stroke-width="1.25091" stroke-linecap="round" stroke-linejoin="round"/>
<path d="M31.3051 73.6669C31.6097 73.9625 31.9731 74.1974 32.3743 74.3577C32.7754 74.518 33.2062 74.6006 33.6413 74.6006C34.0764 74.6006 34.5072 74.518 34.9083 74.3577C35.3095 74.1974 35.673 73.9625 35.9775 73.6669" fill="#FF66CA"/>
<path d="M30.8379 69.2224H30.8472M36.4447 69.2224H36.4541M31.3051 73.6669C31.6097 73.9625 31.9731 74.1974 32.3743 74.3577C32.7754 74.518 33.2062 74.6006 33.6413 74.6006C34.0764 74.6006 34.5072 74.518 34.9083 74.3577C35.3095 74.1974 35.673 73.9625 35.9775 73.6669" stroke="#1E00FC" stroke-width="1.25091" stroke-linecap="round" stroke-linejoin="round"/>
<path d="M108.282 78C112.927 78 116.692 74.4183 116.692 70C116.692 65.5817 112.927 62 108.282 62C103.637 62 99.8716 65.5817 99.8716 70C99.8716 74.4183 103.637 78 108.282 78Z" fill="#FFCCED" stroke="#1E00FC" stroke-width="1.25091" stroke-linecap="round" stroke-linejoin="round"/>
<path d="M105.946 72.6669C106.25 72.9625 106.614 73.1974 107.015 73.3577C107.416 73.518 107.847 73.6006 108.282 73.6006C108.717 73.6006 109.148 73.518 109.549 73.3577C109.95 73.1974 110.314 72.9625 110.618 72.6669" fill="#FFCCED"/>
<path d="M105.479 68.2224H105.488M111.085 68.2224H111.095M105.946 72.6669C106.25 72.9625 106.614 73.1974 107.015 73.3577C107.416 73.518 107.847 73.6006 108.282 73.6006C108.717 73.6006 109.148 73.518 109.549 73.3577C109.95 73.1974 110.314 72.9625 110.618 72.6669" stroke="#1E00FC" stroke-width="1.25091" stroke-linecap="round" stroke-linejoin="round"/>
<path d="M276.487 78C281.132 78 284.898 74.4183 284.898 70C284.898 65.5817 281.132 62 276.487 62C271.843 62 268.077 65.5817 268.077 70C268.077 74.4183 271.843 78 276.487 78Z" fill="#FFCCED" stroke="#1E00FC" stroke-width="1.25091" stroke-linecap="round" stroke-linejoin="round"/>
<path d="M274.151 72.6669C274.456 72.9625 274.819 73.1974 275.22 73.3577C275.622 73.518 276.052 73.6006 276.487 73.6006C276.923 73.6006 277.353 73.518 277.755 73.3577C278.156 73.1974 278.519 72.9625 278.824 72.6669" fill="#FFCCED"/>
<path d="M273.684 68.2224H273.693M279.291 68.2224H279.3M274.151 72.6669C274.456 72.9625 274.819 73.1974 275.22 73.3577C275.622 73.518 276.052 73.6006 276.487 73.6006C276.923 73.6006 277.353 73.518 277.755 73.3577C278.156 73.1974 278.519 72.9625 278.824 72.6669" stroke="#1E00FC" stroke-width="1.25091" stroke-linecap="round" stroke-linejoin="round"/>
</svg>
