<svg width="38" height="38" viewBox="0 0 38 38" fill="none" xmlns="http://www.w3.org/2000/svg">
<path d="M19 37C28.9411 37 37 28.9411 37 19C37 9.05888 28.9411 1 19 1C9.05888 1 1 9.05888 1 19C1 28.9411 9.05888 37 19 37Z" fill="#FC00A4" stroke="#1E00FC" stroke-width="2" stroke-linecap="round" stroke-linejoin="round"/>
<path d="M14 25C14.6518 25.6652 15.4297 26.1937 16.2883 26.5544C17.1468 26.9152 18.0687 27.101 19 27.101C19.9313 27.101 20.8532 26.9152 21.7117 26.5544C22.5703 26.1937 23.3482 25.6652 24 25" fill="#FC00A4"/>
<path d="M9 12L15 18M9 18L15 12M23 12L29 18M23 18L29 12M14 25C14.6518 25.6652 15.4297 26.1937 16.2883 26.5544C17.1468 26.9152 18.0687 27.101 19 27.101C19.9313 27.101 20.8532 26.9152 21.7117 26.5544C22.5703 26.1937 23.3482 25.6652 24 25" stroke="#1E00FC" stroke-width="2" stroke-linecap="round" stroke-linejoin="round"/>
</svg>
