<svg width="64" height="64" viewBox="0 0 64 64" fill="none" xmlns="http://www.w3.org/2000/svg">
<path d="M32 17C36.5087 17 40.8327 18.7911 44.0208 21.9792C47.2089 25.1673 49 29.4913 49 34V51H15V34C15 29.4913 16.7911 25.1673 19.9792 21.9792C23.1673 18.7911 27.4913 17 32 17Z" fill="#FF66CA"/>
<path d="M53 61H11L13 51H51L53 61Z" fill="#1E00FC"/>
<path d="M39 38C41.2091 38 43 36.2091 43 34C43 31.7909 41.2091 30 39 30C36.7909 30 35 31.7909 35 34C35 36.2091 36.7909 38 39 38Z" fill="#CC0085"/>
<path d="M25 38C27.2091 38 29 36.2091 29 34C29 31.7909 27.2091 30 25 30C22.7909 30 21 31.7909 21 34C21 36.2091 22.7909 38 25 38Z" fill="#CC0085"/>
<path d="M51.9801 50.8C51.934 50.5741 51.8113 50.3711 51.6327 50.2253C51.4541 50.0796 51.2306 50 51.0001 50H50.0001V34C50.0001 29.2261 48.1037 24.6477 44.728 21.2721C41.3524 17.8964 36.774 16 32.0001 16C27.2262 16 22.6478 17.8964 19.2722 21.2721C15.8965 24.6477 14.0001 29.2261 14.0001 34V50H13.0001C12.7696 50 12.5461 50.0796 12.3675 50.2253C12.1889 50.3711 12.0662 50.5741 12.0201 50.8L10.0201 60.8C9.99075 60.9452 9.99439 61.0952 10.0307 61.2389C10.0671 61.3825 10.1352 61.5162 10.2301 61.63C10.3217 61.7463 10.4388 61.8401 10.5722 61.9042C10.7057 61.9684 10.852 62.0011 11.0001 62H53.0001C53.1482 62.0011 53.2945 61.9684 53.428 61.9042C53.5614 61.8401 53.6785 61.7463 53.7701 61.63C53.865 61.5162 53.9331 61.3825 53.9695 61.2389C54.0058 61.0952 54.0094 60.9452 53.9801 60.8L51.9801 50.8ZM16.0001 34C16.0001 29.7565 17.6858 25.6869 20.6864 22.6863C23.687 19.6857 27.7566 18 32.0001 18C36.2436 18 40.3132 19.6857 43.3138 22.6863C46.3144 25.6869 48.0001 29.7565 48.0001 34V50H33.0001V35H34.1001C34.3479 36.214 35.0377 37.2928 36.0357 38.0272C37.0337 38.7616 38.2688 39.0992 39.5016 38.9747C40.7344 38.8501 41.8771 38.2723 42.708 37.3532C43.539 36.434 43.9991 35.2391 43.9991 34C43.9991 32.7609 43.539 31.566 42.708 30.6468C41.8771 29.7277 40.7344 29.1499 39.5016 29.0253C38.2688 28.9008 37.0337 29.2384 36.0357 29.9728C35.0377 30.7072 34.3479 31.786 34.1001 33H33.0001V30H31.0001V33H29.9001C29.6523 31.786 28.9625 30.7072 27.9645 29.9728C26.9665 29.2384 25.7314 28.9008 24.4986 29.0253C23.2658 29.1499 22.1231 29.7277 21.2922 30.6468C20.4612 31.566 20.0011 32.7609 20.0011 34C20.0011 35.2391 20.4612 36.434 21.2922 37.3532C22.1231 38.2723 23.2658 38.8501 24.4986 38.9747C25.7314 39.0992 26.9665 38.7616 27.9645 38.0272C28.9625 37.2928 29.6523 36.214 29.9001 35H31.0001V50H20.0001V47H18.0001V50H16.0001V34ZM36.0001 34C36.0001 33.4067 36.176 32.8266 36.5057 32.3333C36.8353 31.8399 37.3039 31.4554 37.852 31.2284C38.4002 31.0013 39.0034 30.9419 39.5854 31.0576C40.1673 31.1734 40.7019 31.4591 41.1214 31.8787C41.541 32.2982 41.8267 32.8328 41.9424 33.4147C42.0582 33.9967 41.9988 34.5999 41.7717 35.148C41.5447 35.6962 41.1602 36.1648 40.6668 36.4944C40.1735 36.8241 39.5934 37 39.0001 37C38.2052 36.9976 37.4435 36.6808 36.8814 36.1187C36.3193 35.5566 36.0025 34.7949 36.0001 34ZM28.0001 34C28.0001 34.5933 27.8241 35.1734 27.4945 35.6667C27.1649 36.1601 26.6963 36.5446 26.1481 36.7716C25.6 36.9987 24.9968 37.0581 24.4148 36.9424C23.8329 36.8266 23.2983 36.5409 22.8788 36.1213C22.4592 35.7018 22.1735 35.1672 22.0577 34.5853C21.942 34.0033 22.0014 33.4001 22.2285 32.852C22.4555 32.3038 22.84 31.8352 23.3334 31.5056C23.8267 31.1759 24.4067 31 25.0001 31C25.795 31.0024 26.5567 31.3192 27.1188 31.8813C27.6809 32.4434 27.9977 33.2051 28.0001 34ZM12.2201 60L13.8201 52H50.1801L51.7801 60H12.2201Z" fill="black"/>
<path d="M20 43H18V45H20V43Z" fill="black"/>
<path d="M33 2H31V8H33V2Z" fill="black"/>
<path d="M10.0798 10.6655L8.66553 12.0796L12.9079 16.3225L14.3222 14.9083L10.0798 10.6655Z" fill="black"/>
<path d="M8 33H2V35H8V33Z" fill="black"/>
<path d="M62 33H56V35H62V33Z" fill="black"/>
<path d="M53.9201 10.6656L49.6775 14.9082L51.0917 16.3224L55.3343 12.0798L53.9201 10.6656Z" fill="black"/>
</svg>
