<svg width="38" height="38" viewBox="0 0 38 38" fill="none" xmlns="http://www.w3.org/2000/svg">
<path d="M19 37C28.9411 37 37 28.9411 37 19C37 9.05887 28.9411 1 19 1C9.05887 1 1 9.05887 1 19C1 28.9411 9.05887 37 19 37Z" fill="#FC00A4" stroke="#1E00FC" stroke-width="2" stroke-linecap="round" stroke-linejoin="round"/>
<path d="M13 15H13.02M25 15H25.02M14 25.5C14.6518 24.8348 15.4297 24.3063 16.2883 23.9456C17.1468 23.5848 18.0687 23.399 19 23.399C19.9313 23.399 20.8532 23.5848 21.7117 23.9456C22.5703 24.3063 23.3482 24.8348 24 25.5" stroke="#1E00FC" stroke-width="2" stroke-linecap="round" stroke-linejoin="round"/>
</svg>
