<svg width="24" height="24" viewBox="0 0 24 24" fill="none" xmlns="http://www.w3.org/2000/svg">
<path d="M2 8C2 6.11438 2 5.17157 2.58579 4.58579C3.17157 4 4.11438 4 6 4H18C19.8856 4 20.8284 4 21.4142 4.58579C22 5.17157 22 6.11438 22 8V9.66667C22 10.1381 22 10.3738 21.8536 10.5202C21.7071 10.6667 21.4714 10.6667 21 10.6667H3C2.5286 10.6667 2.29289 10.6667 2.14645 10.5202C2 10.3738 2 10.1381 2 9.66667V8Z" fill="#757678"/>
<path fill-rule="evenodd" clip-rule="evenodd" d="M2 17.5257C2 19.4113 2 20.3542 2.58579 20.9399C3.17157 21.5257 4.11438 21.5257 6 21.5257H18C19.8856 21.5257 20.8284 21.5257 21.4142 20.9399C22 20.3542 22 19.4113 22 17.5257V12.25C22 11.7786 22 11.5429 21.8536 11.3964C21.7071 11.25 21.4714 11.25 21 11.25H3C2.5286 11.25 2.29289 11.25 2.14645 11.3964C2 11.5429 2 11.7786 2 12.25V17.5257ZM7.00006 14.3052C7.00006 13.8338 7.00006 13.5981 7.1465 13.4516C7.29295 13.3052 7.52865 13.3052 8.00006 13.3052H10.0001C10.4715 13.3052 10.7072 13.3052 10.8536 13.4516C11.0001 13.5981 11.0001 13.8338 11.0001 14.3052V14.3603C11.0001 14.8317 11.0001 15.0674 10.8536 15.2139C10.7072 15.3603 10.4715 15.3603 10.0001 15.3603H8.00006C7.52865 15.3603 7.29295 15.3603 7.1465 15.2139C7.00006 15.0674 7.00006 14.8317 7.00006 14.3603V14.3052ZM7.1465 17.5619C7.00006 17.7083 7.00006 17.944 7.00006 18.4154V18.4706C7.00006 18.942 7.00006 19.1777 7.1465 19.3241C7.29295 19.4706 7.52865 19.4706 8.00006 19.4706H10.0001C10.4715 19.4706 10.7072 19.4706 10.8536 19.3241C11.0001 19.1777 11.0001 18.942 11.0001 18.4706V18.4154C11.0001 17.944 11.0001 17.7083 10.8536 17.5619C10.7072 17.4154 10.4715 17.4154 10.0001 17.4154H8.00006C7.52865 17.4154 7.29295 17.4154 7.1465 17.5619ZM12.9999 14.3052C12.9999 13.8338 12.9999 13.5981 13.1463 13.4516C13.2928 13.3052 13.5285 13.3052 13.9999 13.3052H15.9999C16.4713 13.3052 16.707 13.3052 16.8534 13.4516C16.9999 13.5981 16.9999 13.8338 16.9999 14.3052V14.3603C16.9999 14.8317 16.9999 15.0674 16.8534 15.2139C16.707 15.3603 16.4713 15.3603 15.9999 15.3603H13.9999C13.5285 15.3603 13.2928 15.3603 13.1463 15.2139C12.9999 15.0674 12.9999 14.8317 12.9999 14.3603V14.3052ZM13.1463 17.5619C12.9999 17.7083 12.9999 17.944 12.9999 18.4154V18.4706C12.9999 18.942 12.9999 19.1777 13.1463 19.3241C13.2928 19.4706 13.5285 19.4706 13.9999 19.4706H15.9999C16.4713 19.4706 16.707 19.4706 16.8534 19.3241C16.9999 19.1777 16.9999 18.942 16.9999 18.4706V18.4154C16.9999 17.944 16.9999 17.7083 16.8534 17.5619C16.707 17.4154 16.4713 17.4154 15.9999 17.4154H13.9999C13.5285 17.4154 13.2928 17.4154 13.1463 17.5619Z" fill="#757678"/>
<path d="M7 2L7 5" stroke="#757678" stroke-width="2" stroke-linecap="round"/>
<path d="M17 2L17 5" stroke="#757678" stroke-width="2" stroke-linecap="round"/>
</svg>
