<svg width="22" height="22" viewBox="0 0 22 22" fill="none" xmlns="http://www.w3.org/2000/svg">
<path fill-rule="evenodd" clip-rule="evenodd" d="M0.765768 8.44125C0.695312 9.00101 0.695312 9.66733 0.695312 11C0.695312 12.3326 0.695312 12.9989 0.765768 13.5587C1.27923 17.6381 4.492 20.8508 8.57138 21.3643C9.13114 21.4348 9.79746 21.4348 11.1301 21.4348H16.3475C18.4231 21.4348 19.461 21.4348 20.2102 20.9433C20.5541 20.7178 20.8479 20.424 21.0734 20.0801C21.5649 19.3308 21.5649 18.293 21.5649 16.2174V11C21.5649 9.66733 21.5649 9.00101 21.4944 8.44125C20.981 4.36187 17.7682 1.1491 13.6888 0.635641C13.1291 0.565186 12.4627 0.565186 11.1301 0.565186C9.79746 0.565186 9.13114 0.565186 8.57138 0.635641C4.492 1.1491 1.27923 4.36187 0.765768 8.44125ZM6.65209 9.84051C6.65209 9.28823 7.0998 8.84051 7.65209 8.84051H14.6086C15.1609 8.84051 15.6086 9.28823 15.6086 9.84051C15.6086 10.3928 15.1609 10.8405 14.6086 10.8405H7.65209C7.0998 10.8405 6.65209 10.3928 6.65209 9.84051ZM10.1304 14.4781C10.1304 13.9258 10.5781 13.4781 11.1304 13.4781H14.6086C15.1609 13.4781 15.6086 13.9258 15.6086 14.4781C15.6086 15.0304 15.1609 15.4781 14.6086 15.4781H11.1304C10.5781 15.4781 10.1304 15.0304 10.1304 14.4781Z" fill="#1E00FC"/>
</svg>
