<svg width="20" height="20" viewBox="0 0 20 20" fill="none" xmlns="http://www.w3.org/2000/svg">
<path fill-rule="evenodd" clip-rule="evenodd" d="M20 10C20 15.5228 15.5228 20 10 20C4.47715 20 0 15.5228 0 10C0 4.47715 4.47715 0 10 0C15.5228 0 20 4.47715 20 10ZM10 16.5556C9.44771 16.5556 9 16.1078 9 15.5556V11H4.44444C3.89216 11 3.44444 10.5523 3.44444 10C3.44444 9.44771 3.89216 9 4.44444 9H9V4.44444C9 3.89216 9.44771 3.44444 10 3.44444C10.5523 3.44444 11 3.89216 11 4.44444V9H15.5556C16.1078 9 16.5556 9.44771 16.5556 10C16.5556 10.5523 16.1078 11 15.5556 11H11V15.5556C11 16.1078 10.5523 16.5556 10 16.5556Z" fill="#CC0085"/>
</svg>
