<svg width="19" height="19" viewBox="0 0 19 19" fill="none" xmlns="http://www.w3.org/2000/svg">
<path d="M9.70104 0.385254C4.72556 0.385254 0.6875 4.42332 0.6875 9.39879C0.6875 14.3743 4.72556 18.4123 9.70104 18.4123C14.6765 18.4123 18.7146 14.3743 18.7146 9.39879C18.7146 4.42332 14.6765 0.385254 9.70104 0.385254ZM10.6024 15.7083H8.79968V13.9056H10.6024V15.7083ZM12.4682 8.72278L11.657 9.55202C11.008 10.21 10.6024 10.7508 10.6024 12.1029H8.79968V11.6522C8.79968 10.6607 9.20529 9.75933 9.85427 9.10134L10.9719 7.96564C11.3054 7.64115 11.5037 7.19047 11.5037 6.69473C11.5037 5.70324 10.6925 4.89202 9.70104 4.89202C8.70955 4.89202 7.89833 5.70324 7.89833 6.69473H6.09562C6.09562 4.70274 7.70904 3.08931 9.70104 3.08931C11.693 3.08931 13.3065 4.70274 13.3065 6.69473C13.3065 7.48792 12.982 8.209 12.4682 8.72278Z" fill="#1E00FC"/>
</svg>
