<svg width="20" height="20" viewBox="0 0 20 20" fill="none" xmlns="http://www.w3.org/2000/svg">
<path fill-rule="evenodd" clip-rule="evenodd" d="M0.392088 6.44909C0 7.19275 0 8.03877 0 9.73081V15.0152C0 17.3651 0 18.54 0.836838 19.27C1.64356 19.9737 2.92426 19.9991 5.42863 20V13.7691C5.42863 12.4047 6.64857 11.5229 7.8572 11.5229H12.1429C13.3515 11.5229 14.5715 12.4047 14.5715 13.7691V20C17.0758 19.9991 18.3565 19.9737 19.1632 19.27C20 18.54 20 17.3651 20 15.0152V9.73081C20 8.03877 20 7.19275 19.6079 6.44909C19.2158 5.70544 18.4795 5.15485 17.0068 4.05369L15.5782 2.98552C12.9163 0.995172 11.5854 0 10 0C8.41461 0 7.08367 0.995171 4.42179 2.98551L4.42179 2.98552L2.99322 4.05369C1.52052 5.15485 0.784175 5.70544 0.392088 6.44909ZM12.5715 20V13.7691C12.5715 13.7491 12.5646 13.7016 12.4957 13.6415C12.4248 13.5797 12.3031 13.5229 12.1429 13.5229H7.8572C7.69698 13.5229 7.57527 13.5797 7.50442 13.6415C7.43556 13.7016 7.42863 13.7491 7.42863 13.7691V20H12.5715Z" fill="#CC0085"/>
</svg>
