<svg width="20" height="15" viewBox="0 0 20 15" fill="none" xmlns="http://www.w3.org/2000/svg">
<path d="M6.14198 7.35212C8.03177 7.35212 9.56131 5.79137 9.56131 3.86301C9.56131 1.93466 8.03177 0.373901 6.14198 0.373901C4.25219 0.373901 2.72265 1.93466 2.72265 3.86301C2.72265 5.79137 4.25219 7.35212 6.14198 7.35212ZM8.48666 8.34901H8.23326C7.59825 8.66054 6.89301 8.84746 6.14198 8.84746C5.39095 8.84746 4.68876 8.66054 4.05069 8.34901H3.7973C1.85561 8.34901 0.280273 9.95649 0.280273 11.9378V12.835C0.280273 13.6606 0.936662 14.3303 1.7457 14.3303H10.5383C11.3473 14.3303 12.0037 13.6606 12.0037 12.835V11.9378C12.0037 9.95649 10.4284 8.34901 8.48666 8.34901ZM14.9345 7.35212C16.5526 7.35212 17.8654 6.01255 17.8654 4.36146C17.8654 2.71036 16.5526 1.37079 14.9345 1.37079C13.3165 1.37079 12.0037 2.71036 12.0037 4.36146C12.0037 6.01255 13.3165 7.35212 14.9345 7.35212ZM16.4 8.34901H16.284C15.8596 8.49854 15.4108 8.59823 14.9345 8.59823C14.4583 8.59823 14.0095 8.49854 13.5851 8.34901H13.4691C12.8463 8.34901 12.2723 8.53281 11.7686 8.82876C12.5135 9.64808 12.9806 10.7353 12.9806 11.9378V13.1341C12.9806 13.2026 12.9654 13.268 12.9623 13.3335H18.3539C19.1629 13.3335 19.8193 12.6637 19.8193 11.8381C19.8193 9.90976 18.2898 8.34901 16.4 8.34901Z" fill="#1E00FC"/>
</svg>
