<svg width="23" height="23" viewBox="0 0 23 23" fill="none" xmlns="http://www.w3.org/2000/svg">
<path d="M11.7011 2.38538C9.21603 2.38538 7.19429 4.40711 7.19429 6.89214V9.59621H6.29294C5.81483 9.59621 5.35631 9.78613 5.01823 10.1242C4.68016 10.4623 4.49023 10.9208 4.49023 11.3989V18.6097C4.49023 19.0878 4.68016 19.5464 5.01823 19.8844C5.35631 20.2225 5.81483 20.4124 6.29294 20.4124H17.1092C17.5873 20.4124 18.0458 20.2225 18.3839 19.8844C18.722 19.5464 18.9119 19.0878 18.9119 18.6097V11.3989C18.9119 10.9208 18.722 10.4623 18.3839 10.1242C18.0458 9.78613 17.5873 9.59621 17.1092 9.59621H16.2078V6.89214C16.2078 4.40711 14.1861 2.38538 11.7011 2.38538ZM8.997 6.89214C8.997 5.40131 10.2102 4.18808 11.7011 4.18808C13.1919 4.18808 14.4051 5.40131 14.4051 6.89214V9.59621H8.997V6.89214ZM12.6024 16.5574V18.6097H10.7997V16.5574C10.4846 16.3769 10.2315 16.1052 10.074 15.778C9.91638 15.4508 9.86166 15.0836 9.917 14.7247C9.97234 14.3658 10.1352 14.0321 10.384 13.7676C10.6328 13.5031 10.9559 13.3202 11.3108 13.2431C11.5743 13.1848 11.8476 13.1864 12.1105 13.2478C12.3734 13.3093 12.6191 13.4289 12.8295 13.5979C13.04 13.7669 13.2098 13.9811 13.3265 14.2245C13.4432 14.4679 13.5038 14.7344 13.5038 15.0043C13.5033 15.3196 13.4197 15.6291 13.2614 15.9018C13.1032 16.1744 12.8759 16.4005 12.6024 16.5574Z" fill="#1E00FC"/>
</svg>
