<svg width="14" height="18" viewBox="0 0 14 18" fill="none" xmlns="http://www.w3.org/2000/svg">
<path d="M13.6668 0.666626H0.333496V2.33329L5.17516 5.96663C3.70578 6.45115 2.48889 7.49927 1.79197 8.88063C1.09504 10.262 0.975093 11.8635 1.4585 13.3333C1.69765 14.0614 2.07801 14.7352 2.57781 15.3161C3.07761 15.8971 3.68705 16.3738 4.37125 16.719C5.05546 17.0642 5.80101 17.2711 6.56525 17.3279C7.3295 17.3847 8.09745 17.2902 8.82516 17.05C9.99223 16.6664 11.0084 15.9241 11.7288 14.929C12.4492 13.9339 12.837 12.7368 12.837 11.5083C12.837 10.2798 12.4492 9.08267 11.7288 8.08758C11.0084 7.09248 9.99223 6.35022 8.82516 5.96663L13.6668 2.33329V0.666626ZM9.45016 15.25L7.00016 13.8166L4.55016 15.25L5.20016 12.475L3.04183 10.6083L5.88349 10.3666L7.00016 7.74996L8.11683 10.3666L10.9585 10.6083L8.80016 12.475L9.45016 15.25Z" fill="#948164"/>
</svg>
