<svg width="24" height="24" viewBox="0 0 24 24" fill="none" xmlns="http://www.w3.org/2000/svg">
<path d="M6.93485 7.37466C7.19763 4.7468 9.40893 2.74561 12.0499 2.74561C14.6909 2.74561 16.9022 4.7468 17.165 7.37466L17.4316 10.0414C17.4937 10.662 17.5247 10.9723 17.5889 11.2735C17.6929 11.7619 17.862 12.2341 18.0916 12.6776C18.2332 12.951 18.4062 13.2104 18.7521 13.7294L19.9077 15.4627C20.5444 16.4178 20.8628 16.8954 20.6656 17.2639C20.4683 17.6325 19.8943 17.6325 18.7464 17.6325H5.35339C4.20546 17.6325 3.63149 17.6325 3.43425 17.2639C3.237 16.8954 3.55538 16.4178 4.19214 15.4627L5.34766 13.7294C5.69363 13.2104 5.86662 12.951 6.00819 12.6776C6.23782 12.2341 6.40691 11.7619 6.51094 11.2735C6.57508 10.9723 6.60611 10.662 6.66817 10.0414L6.93485 7.37466Z" fill="#1E00FC"/>
<path d="M10.2523 21.0094C10.3584 21.1084 10.592 21.1958 10.917 21.2581C11.242 21.3205 11.6401 21.3542 12.0498 21.3542C12.4594 21.3542 12.8576 21.3205 13.1826 21.2581C13.5076 21.1958 13.7412 21.1084 13.8472 21.0094" stroke="#1E00FC" stroke-width="1.39564" stroke-linecap="round"/>
</svg>
