<svg width="24" height="24" viewBox="0 0 24 24" fill="none" xmlns="http://www.w3.org/2000/svg">
<path d="M23.2596 17.0196L23.2596 17.0197L17.0214 23.2544C16.8533 23.4117 16.6419 23.5 16.4224 23.5H7.57752C7.36833 23.5 7.14718 23.4097 6.98379 23.2463L0.745589 17.0116C0.588228 16.8435 0.5 16.6324 0.5 16.4133V7.57333C0.5 7.36087 0.592931 7.14097 0.740336 6.99365L0.38688 6.64L0.740336 6.99365L6.99713 0.740318C7.14454 0.592986 7.36469 0.5 7.57752 0.5H16.4358C16.6486 0.5 16.8687 0.592986 17.0161 0.740318L23.2543 6.97507C23.4117 7.14313 23.4999 7.35426 23.4999 7.57333L23.4999 16.4267L23.5 16.4317C23.501 16.5407 23.4804 16.6489 23.4391 16.7498C23.3978 16.8508 23.3368 16.9425 23.2596 17.0196ZM9.77234 17.3333C9.77234 18.5697 10.7702 19.5667 12.0066 19.5667C13.243 19.5667 14.2409 18.5697 14.2409 17.3333C14.2409 16.0969 13.2431 15.1 12.0066 15.1C10.7702 15.1 9.77234 16.0969 9.77234 17.3333ZM10.1726 12C10.1726 13.0097 10.997 13.8333 12.0066 13.8333C13.0163 13.8333 13.8407 13.0097 13.8407 12V6.66667C13.8407 5.65693 13.0163 4.83333 12.0066 4.83333C10.997 4.83333 10.1726 5.65693 10.1726 6.66667V12Z" stroke="#E25C5C"/>
</svg>
