<svg width="18" height="18" viewBox="0 0 18 18" fill="none" xmlns="http://www.w3.org/2000/svg">
<path d="M0 6.21878C0 3.28722 0 1.82144 0.988515 0.910719C1.97703 0 3.56802 0 6.75 0H11.25C14.432 0 16.023 0 17.0115 0.910719C18 1.82144 18 3.28722 18 6.21878V13.2953C18 16.0765 18 17.467 17.0502 17.8924C16.1003 18.3177 14.9135 17.4586 12.5399 15.7403L11.7802 15.1904C10.4455 14.2243 9.77819 13.7412 9 13.7412C8.22181 13.7412 7.55447 14.2243 6.2198 15.1904L5.46015 15.7403C3.08649 17.4586 1.89966 18.3177 0.94983 17.8924C0 17.467 0 16.0765 0 13.2953V6.21878Z" fill="#CC0085"/>
</svg>
